<svg xmlns="http://www.w3.org/2000/svg" xmlns:xlink="http://www.w3.org/1999/xlink" viewBox="0 0 700 500"><defs><linearGradient id="linear-gradient" x1="297.5" y1="297.38" x2="654.6" y2="297.38" gradientUnits="userSpaceOnUse"><stop offset="0" stop-color="#ffc485"/><stop offset="1" stop-color="#d03e3e"/></linearGradient></defs><title>435 </title><g style="isolation:isolate"><g id="Default"><rect width="699.6" height="500" fill="#5d0070"/><path d="M252.83,0h0a93.09,93.09,0,0,1-93.06,93.11H0V0Z" transform="translate(0)" fill="#77008f"/><path d="M151.38,468.46h0A31.53,31.53,0,0,1,119.87,500H0a55.36,55.36,0,0,1,55.35-55.38h72.2A23.84,23.84,0,0,1,151.38,468.46Z" transform="translate(0)" fill="#77008f"/><path d="M548.62,31.54h0A31.53,31.53,0,0,1,580.13,0H700a55.36,55.36,0,0,1-55.35,55.38h-72.2A23.84,23.84,0,0,1,548.62,31.54Z" transform="translate(0)" fill="#77008f"/><path d="M260.05,438.94c4.81,2.78,4.81,7.29,0,10.06s-12.6,2.78-17.41,0-4.81-7.28,0-10.06S255.24,436.16,260.05,438.94Z" transform="translate(0)" fill="#77008f"/><path d="M596.14,421c5.42,3.13,5.42,8.21,0,11.34s-14.21,3.13-19.63,0-5.42-8.21,0-11.34S590.72,417.86,596.14,421Z" transform="translate(0)" fill="#77008f"/><path d="M242.1,338.21c3,1.72,3,4.52,0,6.25a12,12,0,0,1-10.82,0c-3-1.73-3-4.53,0-6.25A11.93,11.93,0,0,1,242.1,338.21Z" transform="translate(0)" fill="#ff7f85"/><path d="M415.51,425.3c2.07,1.2,2.07,3.14,0,4.34a8.35,8.35,0,0,1-7.51,0c-2.07-1.2-2.07-3.14,0-4.34A8.28,8.28,0,0,1,415.51,425.3Z" transform="translate(0)" fill="#ff7f85"/><path d="M393.28,350.61l-74.54,43.07a9.68,9.68,0,0,1-8.77,0h0c-2.42-1.4-2.42-3.67,0-5.07l74.54-43.06a9.68,9.68,0,0,1,8.77,0h0C395.7,347,395.7,349.22,393.28,350.61Z" transform="translate(0)" fill="#77008f"/><path d="M450.87,317.35l-39.4,22.76a9.72,9.72,0,0,1-8.76,0h0c-2.42-1.4-2.42-3.67,0-5.07l39.39-22.76a9.68,9.68,0,0,1,8.77,0h0C453.29,313.68,453.29,316,450.87,317.35Z" transform="translate(0)" fill="#77008f"/><path d="M415.38,315.25l-74.54,43.07a9.74,9.74,0,0,1-8.77,0h0c-2.42-1.4-2.42-3.67,0-5.07l74.54-43.06a9.68,9.68,0,0,1,8.77,0h0C417.8,311.59,417.8,313.85,415.38,315.25Z" transform="translate(0)" fill="#77008f"/><path d="M510.7,260.19l-74.54,43.06a9.68,9.68,0,0,1-8.77,0h0c-2.42-1.4-2.42-3.66,0-5.06l74.54-43.06a9.68,9.68,0,0,1,8.77,0h0C513.12,256.52,513.12,258.79,510.7,260.19Z" transform="translate(0)" fill="#77008f"/><path d="M553.51,280.65,479,323.71a9.68,9.68,0,0,1-8.77,0h0c-2.42-1.4-2.42-3.67,0-5.06l74.54-43.07a9.74,9.74,0,0,1,8.77,0h0C555.93,277,555.93,279.25,553.51,280.65Z" transform="translate(0)" fill="#77008f"/><path d="M412.84,361.91,391,374.52a9.68,9.68,0,0,1-8.77,0h0c-2.42-1.4-2.42-3.67,0-5.07l21.82-12.6a9.68,9.68,0,0,1,8.77,0h0C415.26,358.25,415.26,360.51,412.84,361.91Z" transform="translate(0)" fill="#77008f"/><path d="M599.91,253.84l-21.82,12.61a9.68,9.68,0,0,1-8.77,0h0c-2.42-1.4-2.42-3.67,0-5.07l21.82-12.6a9.68,9.68,0,0,1,8.77,0h0C602.33,250.18,602.33,252.45,599.91,253.84Z" transform="translate(0)" fill="#77008f"/><path d="M430.21,284.09l-74.54,43.06a9.68,9.68,0,0,1-8.77,0h0c-2.42-1.39-2.42-3.66,0-5.06L421.44,279a9.68,9.68,0,0,1,8.77,0h0C432.63,280.43,432.63,282.69,430.21,284.09Z" transform="translate(0)" fill="#77008f"/><path d="M476.61,257.29l-21.82,12.6a9.68,9.68,0,0,1-8.77,0h0c-2.42-1.4-2.42-3.66,0-5.06l21.82-12.61a9.68,9.68,0,0,1,8.77,0h0C479,253.62,479,255.89,476.61,257.29Z" transform="translate(0)" fill="#77008f"/><path d="M513.26,433.32l-74.54,43.06a9.68,9.68,0,0,1-8.77,0h0c-2.42-1.4-2.42-3.67,0-5.06l74.54-43.07a9.74,9.74,0,0,1,8.77,0h0C515.68,429.65,515.68,431.92,513.26,433.32Z" transform="translate(0)" fill="#77008f"/><path d="M570.85,400.05l-39.4,22.76a9.68,9.68,0,0,1-8.77,0h0c-2.42-1.4-2.42-3.67,0-5.07L562.08,395a9.68,9.68,0,0,1,8.77,0h0C573.27,396.39,573.27,398.65,570.85,400.05Z" transform="translate(0)" fill="#77008f"/><path d="M535.36,398,460.82,441a9.68,9.68,0,0,1-8.77,0h0c-2.42-1.4-2.42-3.67,0-5.07l74.54-43.06a9.68,9.68,0,0,1,8.77,0h0C537.78,394.29,537.78,396.56,535.36,398Z" transform="translate(0)" fill="#77008f"/><path d="M630.68,342.89,556.13,386a9.66,9.66,0,0,1-8.76,0h0c-2.42-1.4-2.42-3.67,0-5.07l74.54-43.06a9.68,9.68,0,0,1,8.77,0h0C633.1,339.23,633.1,341.5,630.68,342.89Z" transform="translate(0)" fill="#77008f"/><path d="M673.49,363.35,599,406.42a9.74,9.74,0,0,1-8.77,0h0c-2.42-1.4-2.42-3.67,0-5.07l74.54-43.06a9.68,9.68,0,0,1,8.77,0h0C675.91,359.69,675.91,362,673.49,363.35Z" transform="translate(0)" fill="#77008f"/><path d="M532.82,444.62,511,457.22a9.68,9.68,0,0,1-8.77,0h0c-2.42-1.4-2.42-3.67,0-5.06l21.82-12.61a9.68,9.68,0,0,1,8.77,0h0C535.24,441,535.24,443.22,532.82,444.62Z" transform="translate(0)" fill="#77008f"/><path d="M550.19,366.8l-74.54,43.06a9.68,9.68,0,0,1-8.77,0h0c-2.42-1.4-2.42-3.67,0-5.07l74.54-43.06a9.68,9.68,0,0,1,8.77,0h0C552.61,363.13,552.61,365.4,550.19,366.8Z" transform="translate(0)" fill="#77008f"/><path d="M596.59,340,574.77,352.6a9.68,9.68,0,0,1-8.77,0h0c-2.42-1.4-2.42-3.67,0-5.07l21.82-12.6a9.68,9.68,0,0,1,8.77,0h0C599,336.33,599,338.59,596.59,340Z" transform="translate(0)" fill="#77008f"/><path d="M462.12,376.46l-74.54,43.06a9.68,9.68,0,0,1-8.77,0h0c-2.42-1.4-2.42-3.66,0-5.06l74.55-43.06a9.66,9.66,0,0,1,8.76,0h0C464.55,372.79,464.55,375.06,462.12,376.46Z" transform="translate(0)" fill="#77008f"/><path d="M519.71,343.19,480.32,366a9.68,9.68,0,0,1-8.77,0h0c-2.42-1.4-2.42-3.66,0-5.06l39.39-22.76a9.68,9.68,0,0,1,8.77,0h0C522.13,339.53,522.13,341.8,519.71,343.19Z" transform="translate(0)" fill="#77008f"/><path d="M484.22,341.1l-74.54,43.06a9.68,9.68,0,0,1-8.77,0h0c-2.42-1.4-2.42-3.66,0-5.06L475.46,336a9.72,9.72,0,0,1,8.76,0h0C486.64,337.43,486.64,339.7,484.22,341.1Z" transform="translate(0)" fill="#77008f"/><path d="M579.54,286,505,329.1a9.68,9.68,0,0,1-8.77,0h0c-2.42-1.4-2.42-3.67,0-5.07L570.77,281a9.68,9.68,0,0,1,8.77,0h0C582,282.37,582,284.64,579.54,286Z" transform="translate(0)" fill="#77008f"/><path d="M622.35,306.5l-74.54,43.06a9.68,9.68,0,0,1-8.77,0h0c-2.42-1.4-2.42-3.67,0-5.07l74.54-43.06a9.68,9.68,0,0,1,8.77,0h0C624.77,302.83,624.77,305.1,622.35,306.5Z" transform="translate(0)" fill="#77008f"/><path d="M481.68,387.76l-21.82,12.6a9.68,9.68,0,0,1-8.77,0h0c-2.42-1.4-2.42-3.66,0-5.06l21.82-12.61a9.68,9.68,0,0,1,8.77,0h0C484.1,384.09,484.1,386.36,481.68,387.76Z" transform="translate(0)" fill="#77008f"/><path d="M668.75,279.69,646.93,292.3a9.72,9.72,0,0,1-8.76,0h0c-2.43-1.4-2.43-3.67,0-5.07L660,274.63a9.66,9.66,0,0,1,8.76,0h0C671.17,276,671.17,278.29,668.75,279.69Z" transform="translate(0)" fill="#77008f"/><path d="M499.05,309.94,424.51,353a9.68,9.68,0,0,1-8.77,0h0c-2.42-1.4-2.42-3.67,0-5.06l74.54-43.07a9.68,9.68,0,0,1,8.77,0h0C501.47,306.27,501.47,308.54,499.05,309.94Z" transform="translate(0)" fill="#77008f"/><path d="M545.45,283.13l-21.82,12.61a9.66,9.66,0,0,1-8.76,0h0c-2.43-1.4-2.43-3.67,0-5.07l21.81-12.6a9.68,9.68,0,0,1,8.77,0h0C547.87,279.47,547.87,281.74,545.45,283.13Z" transform="translate(0)" fill="#77008f"/><path d="M321.8,325.32l-70.53,40.74a9.11,9.11,0,0,1-8.29,0h0c-2.29-1.32-2.29-3.47,0-4.79l70.52-40.74a9.19,9.19,0,0,1,8.3,0h0C324.09,321.85,324.09,324,321.8,325.32Z" transform="translate(0)" fill="#77008f"/><path d="M376.28,293.85,339,315.38a9.19,9.19,0,0,1-8.3,0h0c-2.29-1.32-2.29-3.47,0-4.79L368,289.06a9.19,9.19,0,0,1,8.3,0h0C378.57,290.38,378.57,292.53,376.28,293.85Z" transform="translate(0)" fill="#77008f"/><path d="M342.7,291.87l-70.52,40.74a9.17,9.17,0,0,1-8.29,0h0c-2.3-1.32-2.3-3.47,0-4.79l70.52-40.74a9.11,9.11,0,0,1,8.29,0h0C345,288.4,345,290.55,342.7,291.87Z" transform="translate(0)" fill="#77008f"/><path d="M432.88,239.78l-70.52,40.73a9.13,9.13,0,0,1-8.3,0h0c-2.29-1.32-2.29-3.46,0-4.79L424.59,235a9.17,9.17,0,0,1,8.29,0h0C435.17,236.31,435.17,238.45,432.88,239.78Z" transform="translate(0)" fill="#77008f"/><path d="M473.38,259.13l-70.52,40.74a9.17,9.17,0,0,1-8.29,0h0c-2.3-1.32-2.3-3.47,0-4.79l70.52-40.74a9.17,9.17,0,0,1,8.29,0h0C475.67,255.66,475.67,257.81,473.38,259.13Z" transform="translate(0)" fill="#77008f"/><path d="M340.3,336l-20.64,11.93a9.19,9.19,0,0,1-8.3,0h0c-2.29-1.33-2.29-3.47,0-4.8L332,331.22a9.19,9.19,0,0,1,8.3,0h0C342.59,332.54,342.59,334.69,340.3,336Z" transform="translate(0)" fill="#77008f"/><path d="M517.28,233.77,496.64,245.7a9.19,9.19,0,0,1-8.3,0h0c-2.29-1.33-2.29-3.47,0-4.8L509,229a9.17,9.17,0,0,1,8.29,0h0C519.57,230.3,519.57,232.45,517.28,233.77Z" transform="translate(0)" fill="#77008f"/><path d="M356.73,262.39l-70.52,40.74a9.19,9.19,0,0,1-8.3,0h0c-2.29-1.33-2.29-3.47,0-4.79l70.53-40.74a9.11,9.11,0,0,1,8.29,0h0C359,258.92,359,261.07,356.73,262.39Z" transform="translate(0)" fill="#77008f"/><path d="M400.63,237,380,249a9.13,9.13,0,0,1-8.3,0h0c-2.29-1.32-2.29-3.47,0-4.79l20.65-11.92a9.11,9.11,0,0,1,8.29,0h0C402.92,233.56,402.92,235.71,400.63,237Z" transform="translate(0)" fill="#77008f"/><path d="M648,388.77l-89.75,51.81c-11.13,6.43-29.17,6.43-40.29,0L303.34,316.67c-11.13-6.42-11.13-16.83,0-23.26l89.75-51.81c11.12-6.43,29.16-6.43,40.29,0L648,365.5C659.12,371.93,659.12,382.34,648,388.77Z" transform="translate(0)" fill="#b0a7c2" style="mix-blend-mode:multiply"/><path d="M295.21,270.5a16.15,16.15,0,0,0,4.78,4L515.75,399.08a27.45,27.45,0,0,0,8.11,3.11,43.08,43.08,0,0,0,8.73.93,33.75,33.75,0,0,0,16.86-4l102.67-59.3c2.9-1.67,6-4.56,6.8-7.82a7.74,7.74,0,0,0,.18-1.66v15.31c0,4.2-3.25,7.58-7,9.73L549.45,414.65a27.43,27.43,0,0,1-8.11,3.1c-8.33,1.78-18.25,1.14-25.59-3.1L300,290a21.92,21.92,0,0,1-2.71-1.84c-2.34-1.85-4.26-5-4.26-8h0v-15.5h0A10.27,10.27,0,0,0,295.21,270.5Z" transform="translate(0)" fill="#a9a8c6"/><path d="M609.47,369.19a1.85,1.85,0,0,1,1.71-.22,1.71,1.71,0,0,1,.82,1.69v1.09a5.61,5.61,0,0,1-2.53,4.39l-17.36,10a1.55,1.55,0,0,1-2.54-1.46v-1.1a5.6,5.6,0,0,1,2.54-4.38Z" transform="translate(0)" fill="#1c1a2a"/><path d="M570.92,391.18c2.42-2.45,4.74-1.48,4.67,1.06-.1,3.81-3.87,7.53-5.92,6.25a2.16,2.16,0,0,1-.7-.76,3.27,3.27,0,0,1-.28-2,7.94,7.94,0,0,1,.72-2.4h0a9.41,9.41,0,0,0,.54-.93A7.43,7.43,0,0,1,570.92,391.18Z" transform="translate(0)" fill="#1c1a2a"/><path d="M299.41,269.54c1.77,2.14,3.19,2.71,9.4,6.34.11.07,210.25,121.5,211.35,122a29,29,0,0,0,12.45,2.62l0,2.59a43.08,43.08,0,0,1-8.73-.93,27.45,27.45,0,0,1-8.11-3.11L300,274.46a16.15,16.15,0,0,1-4.78-4,10.27,10.27,0,0,1-2.19-5.79,6.8,6.8,0,0,1,.17-1.91c.76-3.26,3.9-6.15,6.8-7.82l102.66-59.3a34,34,0,0,1,16.86-4l0,2.59a31.79,31.79,0,0,0-6.64.69c-4.44.94-6.59,2.29-9.9,4.27s7.63-4.47-38.54,22.2c-7.51,4.34-15,8.76-22.5,13.1s-15.06,8.58-22.56,13c-3.12,1.83-6.24,3.69-9.37,5.46a85,85,0,0,0-8.85,5.28C297.22,261.33,296.2,265.69,299.41,269.54Z" transform="translate(0)" fill="#e1dfea"/><polygon points="351.18 312.26 352.9 311.26 333.97 300.33 332.25 301.32 351.18 312.26" fill="#e1dfea"/><polygon points="352.9 313.66 352.9 311.26 351.18 312.26 351.18 314.65 352.9 313.66" fill="#7c7ca0"/><polygon points="351.18 314.65 351.18 312.26 332.25 301.32 332.25 303.72 351.18 314.65" fill="#7c7ca0"/><path d="M559.85,401.27h0a1.46,1.46,0,0,0,.66-1.13h0c0-.4-.3-.56-.66-.35h0a1.45,1.45,0,0,0-.67,1.12h0C559.18,401.32,559.48,401.48,559.85,401.27Z" transform="translate(0)" fill="#1c1a2a"/><path d="M646.61,354.74h0a2.27,2.27,0,0,0,1-1.75v-4.92c0-.63-.47-.88-1-.55h0a2.28,2.28,0,0,0-1,1.75v4.92C645.58,354.82,646.05,355.07,646.61,354.74Z" transform="translate(0)" fill="#1c1a2a"/><path d="M642.48,357.12h0a2.23,2.23,0,0,0,1-1.74v-4.92c0-.63-.47-.88-1-.55h0a2.27,2.27,0,0,0-1,1.74v4.92C641.45,357.2,641.92,357.45,642.48,357.12Z" transform="translate(0)" fill="#1c1a2a"/><path d="M638.35,359.51h0a2.25,2.25,0,0,0,1-1.74v-4.92c0-.64-.47-.88-1-.56h0a2.28,2.28,0,0,0-1,1.75V359C637.32,359.59,637.79,359.84,638.35,359.51Z" transform="translate(0)" fill="#1c1a2a"/><path d="M634.22,361.9h0a2.27,2.27,0,0,0,1-1.75v-4.92c0-.63-.47-.88-1-.55h0a2.27,2.27,0,0,0-1,1.74v4.92C633.19,362,633.66,362.22,634.22,361.9Z" transform="translate(0)" fill="#1c1a2a"/><path d="M630.09,364.28h0a2.25,2.25,0,0,0,1-1.74v-4.92c0-.63-.47-.88-1-.55h0a2.25,2.25,0,0,0-1,1.74v4.92C629.06,364.36,629.53,364.61,630.09,364.28Z" transform="translate(0)" fill="#1c1a2a"/><path d="M626,366.67h0a2.27,2.27,0,0,0,1-1.75V360c0-.63-.47-.88-1-.55h0a2.27,2.27,0,0,0-1,1.75v4.92C624.93,366.75,625.4,367,626,366.67Z" transform="translate(0)" fill="#1c1a2a"/><path d="M652.12,339.78l-102.67,59.3a33.75,33.75,0,0,1-16.86,4l0-2.59a29.84,29.84,0,0,0,11.31-2.12,38.62,38.62,0,0,0,5.24-2.84c3.35-2-7.63,4.47,38.54-22.2,7.51-4.34,15-8.76,22.5-13.09s15.07-8.59,22.56-13c3.12-1.83,6.24-3.68,9.38-5.46,6.22-3.5,9.15-4.86,11.07-7.63,2.51-3.61,1.94-8.39-4.27-12.06-.24-.15-216-124.82-217-125.3a29.16,29.16,0,0,0-12.46-2.62l0-2.59a43.33,43.33,0,0,1,8.74.93,27.62,27.62,0,0,1,8.12,3.11L652.12,320.31a16,16,0,0,1,4.79,3.95,10.16,10.16,0,0,1,2.19,6,7.74,7.74,0,0,1-.18,1.66C658.17,335.22,655,338.11,652.12,339.78Z" transform="translate(0)" fill="#e1dfea"/><path d="M435.93,199.14c-2.51-1.45-3.91-2.26-4-2.29a29.32,29.32,0,0,0-12.47-2.62,32.46,32.46,0,0,0-6.63.69c-4.45.94-6.6,2.29-9.9,4.28-3.11,1.87,6.17-3.61-29.71,17.08l-8.84,5.11c-7.51,4.35-15,8.77-22.49,13.1q-3.09,1.78-6.19,3.54c-5.46,3.13-10.94,6.24-16.38,9.43-3.12,1.84-6.23,3.69-9.37,5.46a85.69,85.69,0,0,0-8.84,5.28c-3.91,3.14-4.94,7.49-1.74,11.35,1.78,2.13,3.2,2.7,9.41,6.33l91.25,52.72c56.91,32.87,119.5,69,120.11,69.32a29,29,0,0,0,12.44,2.61,29.83,29.83,0,0,0,11.31-2.11,38,38,0,0,0,5.23-2.85c3.36-2-7.62,4.47,38.55-22.19,7.51-4.35,15-8.77,22.5-13.11s15.07-8.58,22.57-13c3.11-1.83,6.23-3.68,9.37-5.46,6.23-3.49,9.15-4.86,11.07-7.63,2.43-3.48,2-8-3.58-11.62a8.09,8.09,0,0,0-.69-.44C648.71,322,465.45,216.12,435.93,199.14Z" transform="translate(0)" fill="#e1dfea"/><path d="M649.62,322.59c5.56,3.6,6,8.14,3.58,11.62-1.92,2.77-4.84,4.14-11.07,7.63-3.14,1.78-6.26,3.63-9.37,5.46-7.5,4.39-15,8.64-22.57,13s-15,8.76-22.5,13.11c-46.17,26.66-35.19,20.18-38.55,22.19a38,38,0,0,1-5.23,2.85c-7.22,3-17.09,2.76-23.75-.5-1-.49-183.73-106.08-211.36-122-6.21-3.63-7.63-4.2-9.41-6.33-3.2-3.86-2.17-8.21,1.74-11.35,2.13-1.7,98.82-57.2,101.82-59,3.3-2,5.45-3.34,9.9-4.28a31.08,31.08,0,0,1,19.1,1.93C432.08,196.91,426.23,193.54,649.62,322.59Z" transform="translate(0)" fill="url(#linear-gradient)"/><path d="M368.81,224.4a3.63,3.63,0,0,1,3.36,0l1.25.71-22.86,13.21a3.74,3.74,0,0,1-3.37,0L346,237.6Z" transform="translate(0)" fill="#090000"/><path d="M372.17,222.07l1.58.91a1,1,0,0,1,0,1.94l-.33.19-1.25-.71a3.63,3.63,0,0,0-3.36,0L346,237.6l-.33-.19a1.24,1.24,0,0,1-.7-1v0a1.17,1.17,0,0,1,.7-1l23.19-13.39A3.66,3.66,0,0,1,372.17,222.07Z" transform="translate(0)" fill="#1a2738"/><g opacity="0.27"><path d="M392.18,249.28l-46.79,27a6.14,6.14,0,0,1-5.51,0h0c-1.52-.88-1.52-2.31,0-3.18l46.8-27a6.06,6.06,0,0,1,5.5,0h0C393.7,247,393.7,248.41,392.18,249.28Z" transform="translate(0)" fill="#f2f8ff"/><path d="M389.05,263.81l-32.66,18.86a6.06,6.06,0,0,1-5.5,0h0c-1.52-.88-1.52-2.3,0-3.18l32.65-18.86a6.08,6.08,0,0,1,5.51,0h0C390.57,261.51,390.57,262.93,389.05,263.81Z" transform="translate(0)" fill="#f2f8ff"/><path d="M400.05,270.16,367.39,289a6.06,6.06,0,0,1-5.5,0h0c-1.52-.88-1.52-2.3,0-3.18L394.55,267a6.12,6.12,0,0,1,5.5,0h0C401.57,267.86,401.57,269.29,400.05,270.16Z" transform="translate(0)" fill="#f2f8ff"/></g><g opacity="0.27"><path d="M464.09,294.68l-46.79,27a6.08,6.08,0,0,1-5.51,0h0c-1.52-.88-1.52-2.3,0-3.18l46.8-27a6.06,6.06,0,0,1,5.5,0h0C465.61,292.37,465.61,293.8,464.09,294.68Z" transform="translate(0)" fill="#f2f8ff"/><path d="M461,309.2,428.3,328.06a6.06,6.06,0,0,1-5.5,0h0c-1.52-.87-1.52-2.3,0-3.18L455.45,306a6.08,6.08,0,0,1,5.51,0h0C462.48,306.9,462.48,308.32,461,309.2Z" transform="translate(0)" fill="#f2f8ff"/><path d="M472,315.55,439.3,334.42a6.06,6.06,0,0,1-5.5,0h0c-1.52-.88-1.52-2.3,0-3.18l32.65-18.86a6.08,6.08,0,0,1,5.51,0h0C473.48,313.25,473.48,314.68,472,315.55Z" transform="translate(0)" fill="#f2f8ff"/></g><g opacity="0.27"><path d="M559.89,281.67l-46.79,27a6.06,6.06,0,0,1-5.5,0h0c-1.52-.88-1.52-2.3,0-3.18l46.79-27a6.06,6.06,0,0,1,5.5,0h0C561.41,279.37,561.41,280.79,559.89,281.67Z" transform="translate(0)" fill="#f2f8ff"/><path d="M556.76,296.19,524.1,315.06a6.12,6.12,0,0,1-5.5,0h0c-1.52-.88-1.52-2.31,0-3.18L551.26,293a6.06,6.06,0,0,1,5.5,0h0C558.28,293.89,558.28,295.31,556.76,296.19Z" transform="translate(0)" fill="#f2f8ff"/><path d="M567.76,302.55l-32.65,18.86a6.08,6.08,0,0,1-5.51,0h0c-1.52-.88-1.52-2.3,0-3.18l32.66-18.86a6.06,6.06,0,0,1,5.5,0h0C569.28,300.25,569.28,301.67,567.76,302.55Z" transform="translate(0)" fill="#f2f8ff"/></g><g opacity="0.27"><path d="M549.86,341.78l-46.8,27a6.06,6.06,0,0,1-5.5,0h0c-1.52-.88-1.52-2.3,0-3.18l46.79-27a6.08,6.08,0,0,1,5.51,0h0C551.38,339.48,551.38,340.9,549.86,341.78Z" transform="translate(0)" fill="#f2f8ff"/><path d="M546.72,356.3l-32.65,18.87a6.14,6.14,0,0,1-5.51,0h0c-1.52-.88-1.52-2.31,0-3.18l32.66-18.87a6.06,6.06,0,0,1,5.5,0h0C548.24,354,548.24,355.42,546.72,356.3Z" transform="translate(0)" fill="#f2f8ff"/><path d="M557.72,362.66l-32.65,18.86a6.08,6.08,0,0,1-5.51,0h0c-1.51-.88-1.51-2.3,0-3.18l32.66-18.86a6.06,6.06,0,0,1,5.5,0h0C559.24,360.36,559.24,361.78,557.72,362.66Z" transform="translate(0)" fill="#f2f8ff"/></g><g opacity="0.27"><path d="M483.46,236l-46.79,27a6.06,6.06,0,0,1-5.5,0h0c-1.52-.88-1.52-2.3,0-3.18l46.79-27a6.06,6.06,0,0,1,5.5,0h0C485,233.64,485,235.07,483.46,236Z" transform="translate(0)" fill="#717f90"/><path d="M480.33,250.47l-32.66,18.86a6.06,6.06,0,0,1-5.5,0h0c-1.52-.87-1.52-2.3,0-3.18l32.66-18.86a6.06,6.06,0,0,1,5.5,0h0C481.85,248.17,481.85,249.59,480.33,250.47Z" transform="translate(0)" fill="#717f90"/><path d="M491.33,256.82l-32.65,18.87a6.08,6.08,0,0,1-5.51,0h0c-1.52-.88-1.52-2.3,0-3.18l32.66-18.86a6.06,6.06,0,0,1,5.5,0h0C492.85,254.52,492.85,256,491.33,256.82Z" transform="translate(0)" fill="#717f90"/></g><path d="M344.06,128v26c0,9.09-6.38,20.15-14.25,24.7l-3.33,1.92-7.91,19-7.91-9.91-3.32,1.92c-.32.19-.65.36-1,.52-3.56,1.78-6.76,1.85-9.13.48l-.18-.11c-2.47-1.54-4-4.69-4-9.12v-26c0-9.09,6.38-20.15,14.26-24.7l22.47-13c3.86-2.23,7.36-2.48,9.92-1.09l.16.09C342.47,120.29,344.06,123.48,344.06,128Z" transform="translate(0)" fill="#8140ff"/><path d="M285.7,186c-2.58-1.49-4.18-4.69-4.18-9.23v-26c0-9.09,6.38-20.15,14.25-24.7l22.48-13c3.93-2.28,7.5-2.49,10.07-1l11.41,6.59c-2.56-1.39-6.06-1.14-9.92,1.09l-22.47,13c-7.88,4.55-14.26,15.61-14.26,24.7v26c0,4.43,1.52,7.58,4,9.12Z" transform="translate(0)" fill="#a68efe"/><path d="M310.66,189.76l7.91,9.91L307,193l-.63-.79c.31-.16.64-.33,1-.52Z" transform="translate(0)" fill="#a68efe"/><path d="M326.68,145.24c-3-2.69-8.9-.55-13.16,4.8s-5.25,11.87-2.24,14.57c2.61,2.33,7.37,1,11.36-2.82l5.46,4.88c.62.56,1.87.08,2.79-1.08s1.16-2.54.54-3.1L326,157.6C328.88,152.78,329.29,147.58,326.68,145.24Zm-3.56,13.39c-3.23,4.06-7.7,5.69-10,3.64s-1.53-7,1.7-11.05,7.7-5.69,10-3.64S326.35,154.58,323.12,158.63Z" transform="translate(0)" fill="#d0b8ff"/><ellipse cx="284.82" cy="200.47" rx="8.62" ry="4.98" fill="#77008f"/><path d="M687.12,183.47c3.36,1.94,3.36,5.1,0,7a13.43,13.43,0,0,1-12.19,0c-3.37-1.94-3.37-5.1,0-7A13.43,13.43,0,0,1,687.12,183.47Z" transform="translate(0)" fill="#77008f"/><path d="M293.67,226.33l1.25,1.8c.1.15.3.18.53.08l2.78-1.2c.57-.25.8.32.39,1l-2,3.13a1.09,1.09,0,0,0-.2.73l.48,2.5a1.34,1.34,0,0,1-1,1.33l-2.49.12a1.12,1.12,0,0,0-.65.38l-2.49,2.75c-.51.57-1.11.48-1-.15l.48-3.05c0-.25,0-.44-.2-.5l-2-.81c-.42-.16-.19-1,.38-1.42l2.79-2a1.57,1.57,0,0,0,.52-.69l1.25-3.24C292.67,226.38,293.42,226,293.67,226.33Z" transform="translate(0)" fill="#ff73b5"/><path d="M307.79,218.17,309,220c.1.15.3.18.53.08l2.78-1.21c.58-.24.81.33.39,1l-2,3.12a1.06,1.06,0,0,0-.2.74l.47,2.5a1.32,1.32,0,0,1-1,1.32l-2.48.13a1,1,0,0,0-.66.38l-2.48,2.74c-.52.57-1.12.48-1-.15l.47-3c0-.25,0-.44-.2-.51l-2-.8c-.42-.16-.19-1,.39-1.42l2.78-2a1.57,1.57,0,0,0,.53-.69l1.24-3.24C306.79,218.23,307.53,217.8,307.79,218.17Z" transform="translate(0)" fill="#ff73b5"/><path d="M321.9,210l1.25,1.8a.39.39,0,0,0,.52.08l2.79-1.2c.57-.25.8.33.38,1l-2,3.13a1.11,1.11,0,0,0-.2.74l.47,2.49a1.34,1.34,0,0,1-1,1.33l-2.49.13a1,1,0,0,0-.65.37l-2.49,2.75c-.52.57-1.12.48-1-.15l.48-3.05c0-.25,0-.44-.2-.5l-2-.8c-.41-.17-.18-1,.39-1.42l2.78-2a1.63,1.63,0,0,0,.53-.69l1.25-3.24C320.9,210.08,321.64,209.65,321.9,210Z" transform="translate(0)" fill="#ff73b5"/><path d="M336,201.87l1.24,1.8c.1.15.3.18.53.08l2.78-1.2c.57-.25.8.32.39,1l-2,3.13a1.09,1.09,0,0,0-.2.73l.48,2.5a1.33,1.33,0,0,1-1,1.33l-2.49.13a1.07,1.07,0,0,0-.65.37l-2.49,2.75c-.51.57-1.11.48-1-.15l.47-3.05c0-.25,0-.44-.2-.5l-2-.81c-.42-.16-.19-1,.38-1.42l2.79-2a1.5,1.5,0,0,0,.52-.69l1.25-3.24C335,201.92,335.76,201.49,336,201.87Z" transform="translate(0)" fill="#a135bc"/><path d="M350.13,193.71l1.24,1.81a.41.41,0,0,0,.53.08l2.78-1.21c.58-.24.81.33.39,1l-2,3.12a1.06,1.06,0,0,0-.2.74l.47,2.5a1.32,1.32,0,0,1-1,1.32l-2.49.13a1,1,0,0,0-.65.38l-2.49,2.75c-.52.56-1.12.47-1-.16l.48-3c0-.25,0-.44-.21-.51l-2-.8c-.42-.16-.19-1,.39-1.42l2.78-2a1.57,1.57,0,0,0,.53-.69l1.24-3.24C349.13,193.77,349.87,193.34,350.13,193.71Z" transform="translate(0)" fill="#a135bc"/><path d="M501.18,83.93v21.48c0,7.52,5.28,16.66,11.79,20.42l2.75,1.59,6.54,15.75L528.8,135c.92.52,1.84,1.06,2.75,1.59l.79.42c2.94,1.48,5.59,1.53,7.55.4l.15-.09c2-1.27,3.3-3.87,3.3-7.54V108.29c0-7.53-5.28-16.67-11.79-20.43L513,77.13c-3.2-1.85-6.09-2.06-8.21-.9l-.13.07C502.5,77.53,501.18,80.17,501.18,83.93Z" transform="translate(0)" fill="#ff73b5"/><path d="M549.44,131.87c2.14-1.23,3.46-3.88,3.46-7.63V102.76c0-7.52-5.28-16.66-11.79-20.42L522.53,71.6c-3.26-1.88-6.2-2.06-8.33-.82l-9.44,5.45c2.12-1.16,5-1,8.21.9l18.58,10.73c6.51,3.76,11.79,12.9,11.79,20.43v21.47c0,3.67-1.26,6.27-3.3,7.54Z" transform="translate(0)" fill="#d2448d"/><path d="M528.8,135l-6.54,8.19,9.56-5.52.52-.66-.79-.42C530.64,136,529.72,135.5,528.8,135Z" transform="translate(0)" fill="#d2448d"/><path d="M520.71,98.4a.64.64,0,0,0-.55-.09l-.55.23-3-1.72c-1.15-.67-2.14-.38-2.3.67l-.27,1.72,1.57.91.24-1.53c0-.34.38-.44.76-.22l3.31,1.91a.64.64,0,0,0,.55.09l.55-.23,2.46,1.42.55.87a1.64,1.64,0,0,0,.54.54l3.31,1.91a1.64,1.64,0,0,1,.77,1.11l.24,1.8,1.57.91-.27-2a5,5,0,0,0-2.31-3.33l-3-1.73-.55-.86a1.7,1.7,0,0,0-.55-.55ZM513,100.13c-.43-.25-.78-.1-.78.33V102a1.59,1.59,0,0,0,.78,1.22l.13.08,1.21,7.94a3.32,3.32,0,0,0,1.53,2.18l12.88,7.44c.76.44,1.4.26,1.53-.41l1.21-6.55.13.08c.42.24.77.1.77-.33v-1.55a1.64,1.64,0,0,0-.77-1.23Zm13.19,11.5a1.6,1.6,0,0,1,.77,1.22v3.88c0,.43-.35.58-.77.33a1.62,1.62,0,0,1-.78-1.22V112c0-.43.35-.58.78-.33Zm-3.88-2.24a1.6,1.6,0,0,1,.77,1.22v3.88c0,.43-.35.58-.77.33a1.62,1.62,0,0,1-.78-1.22v-3.89c0-.42.35-.57.78-.32Zm-3.88-2.24a1.59,1.59,0,0,1,.78,1.22v3.88c0,.43-.35.58-.78.33a1.62,1.62,0,0,1-.78-1.23v-3.88c0-.42.35-.57.78-.32Z" transform="translate(0)" fill="#fbfafc"/><path d="M567,322.55l-49.42,28.54c-4.89,2.82-12.8,2.82-17.69,0l-90.77-52.41c-4.88-2.82-4.88-7.39,0-10.21l49.43-28.53c4.88-2.82,12.8-2.82,17.68,0L567,312.34C571.85,315.16,571.85,319.73,567,322.55Z" transform="translate(0)" fill="#cdc3e2" style="mix-blend-mode:multiply"/><path d="M581.67,349.79c-1.16-2.07-4.38-3.49-6.76-4a12.48,12.48,0,0,0-8.44,1.23c-1.72,1-2.58,2.13-2.58,3.4v1.46c0,1.74,1.72,3.06,3.23,3.94a13.51,13.51,0,0,0,8.34,1.52c2.32-.32,5.27-1.48,6.31-3.55a2.59,2.59,0,0,0,.3-1.19v-1.45A2.77,2.77,0,0,0,581.67,349.79Zm-7-5.75,12.58,7.27,1.55-.89V349l-3.15-1.81,7.26.89,1.91-1.1v-1.45l-9.55-1.09c.08-3,.07-2.14.07-4l-2,1.16c0,1.83,0,.89,0,4.25l-7.16-4.14-1.54.89ZM600.8,359.8c-9.1,6-23.12,7-33.81,4.22-5.16-1.36-11-4-14.28-8.21-3.65-4.62-3.41-9.71,0-14,8.34-10.55,32.42-13.1,46.76-4.87h0a20,20,0,0,1,5.82,4.83C610.38,348.23,607.78,355.19,600.8,359.8Z" transform="translate(0)" fill="#aa9bc3" style="mix-blend-mode:multiply"/><path d="M543.69,347.1a20,20,0,0,0,5.84,4.83c9.85,5.66,24.51,6.29,35.41,2.48,4.2-1.46,8.59-3.86,11.35-7.34a11.12,11.12,0,0,0,2.63-7h0v7.53h0c0,6.1-5.46,10.61-11,13.15-10.51,4.79-25.37,4.79-35.89,0-5.55-2.55-11-7.05-11-13.13v-7.49h0A11.27,11.27,0,0,0,543.69,347.1Z" transform="translate(0)" fill="#b4aad1"/><polygon points="585.79 336.79 585.79 338.24 583.89 339.34 583.89 337.89 585.79 336.79" fill="#c42979"/><polygon points="583.89 337.89 583.89 339.34 576.63 338.44 576.21 338.19 576.21 336.93 583.89 337.89" fill="#c42979"/><polygon points="579.78 340.26 579.78 341.71 578.23 342.61 578.23 341.15 579.78 340.26" fill="#c42979"/><polygon points="578.23 341.15 578.23 342.61 565.64 335.33 565.64 333.88 578.23 341.15" fill="#c42979"/><path d="M579.78,340.26l-1.55.89-12.59-7.27,1.55-.89,7.16,4.13s0,.34,0-4.25l2-1.15-.1,4c.77.07-2.69-.31,9.57,1.09l-1.9,1.11-7.68-1-.05,1.24Z" transform="translate(0)" fill="#f1519d"/><path d="M572.65,341.08c-1.16-2.07-4.38-3.49-6.77-3.95a12.46,12.46,0,0,0-8.43,1.22c-1.72,1-2.58,2.13-2.58,3.41v1.45c0,1.75,1.72,3.07,3.23,3.94a13.49,13.49,0,0,0,8.33,1.53c2.33-.32,5.27-1.49,6.32-3.56a2.55,2.55,0,0,0,.3-1.18v-1.46A2.79,2.79,0,0,0,572.65,341.08Zm-7-5.75,12.59,7.28,1.55-.9v-1.45l-3.15-1.82,7.26.9,1.9-1.1v-1.46l-9.54-1.09c.08-3,.07-2.14.07-4l-2,1.15c0,1.83,0,.89,0,4.25L567.19,333l-1.55.89Zm26.14,15.77c-9.1,6-23.12,7-33.81,4.21-5.16-1.36-11-4-14.28-8.21-3.65-4.62-3.41-9.7,0-14,8.34-10.54,32.42-13.1,46.76-4.86h0a20.06,20.06,0,0,1,5.82,4.82C601.36,339.53,598.76,346.49,591.78,351.1Z" transform="translate(0)" fill="#ece7f2"/><path d="M570.81,342.75c.06-1.37-1.35-2.42-2.54-3.11a9.57,9.57,0,0,0-9.38-.46,3.07,3.07,0,0,0-1.83,2.46c0,1.28,1.67,2.44,2.78,3.08a9.47,9.47,0,0,0,9.2.34A3,3,0,0,0,570.81,342.75Zm2.24-.27c0,1.45-1.31,2.67-2.58,3.4a13,13,0,0,1-12.37-.18c-1.51-.88-3.23-2.2-3.23-3.94,0-1.28.86-2.41,2.58-3.41a13,13,0,0,1,12.55.3C571.42,339.48,573.05,340.83,573.05,342.48Z" transform="translate(0)" fill="#f1519d"/><path d="M568.27,341.1a5.16,5.16,0,0,1,2.41,2.3c-.84,2.17-6.06,4.07-10.84,1.32a6.15,6.15,0,0,1-2.63-2.36C558.08,340.11,563.25,338.19,568.27,341.1Z" transform="translate(0)" fill="#ece7f2"/><path d="M570.81,342.51a2.17,2.17,0,0,1-.13.89,5.16,5.16,0,0,0-2.41-2.3c-5-2.9-10.18-1-11.06,1.26a1.61,1.61,0,0,1-.15-.72,3.07,3.07,0,0,1,1.83-2.46,9.57,9.57,0,0,1,9.38.46C569.89,340.58,570.74,341.54,570.81,342.51Z" transform="translate(0)" fill="#c42979"/><path d="M558.1,345.7a13.07,13.07,0,0,0,12.37.18c1.27-.73,2.58-1.95,2.58-3.4v1.46a2.55,2.55,0,0,1-.3,1.18c-1,2.07-4,3.24-6.32,3.56a13.48,13.48,0,0,1-8.33-1.53c-1.51-.87-3.23-2.19-3.23-3.94v-1.45C554.87,343.5,556.59,344.82,558.1,345.7Z" transform="translate(0)" fill="#c42979"/><polygon points="473.26 239.04 501.78 221.79 498.51 220.34 469.63 237.04 473.26 239.04" fill="#e1dfea"/><polygon points="457.28 229.24 485.8 211.98 482.53 210.53 453.65 227.24 457.28 229.24" fill="#e1dfea"/><polygon points="431.87 198.12 434.13 215.12 448.56 207.8 431.87 198.12" fill="#d2448d"/><path d="M425.45,140.05v47.64c1.27.74,28.74,16.48,28.74,16.48l10.72-5.81.76-47.36V116.83Z" transform="translate(0)" fill="#d2448d"/><path d="M423.58,75.41h0A26.76,26.76,0,0,1,433,89.92q2.75,11.22,5.48,22.43l4.54-2.62-5.13-21a31.83,31.83,0,0,0-11.34-17.37h0l-8.61-6.3h0c-7.53-5.59-20.22-6.59-28-2h0q-9.68,5.58-19.34,11.17L351.24,85.37h0c-4,2.24-6.77,6.1-6.53,10.62.21,4.12,2.87,7.71,6.17,10.09h0l8.62,6.3a26.7,26.7,0,0,1,9.42,14.51h0l7,28.46s.16,0,.19,0a10.14,10.14,0,0,1,2.12.31,4.39,4.39,0,0,0,1.87.28c.61-.2.83-1.16.68-1.86l-.36-1.48-6.57-26.87a31.73,31.73,0,0,0-11.34-17.37h0l-8.62-6.3h0c-2.49-1.78-4.67-4.64-4-7.61a7.61,7.61,0,0,1,3.91-4.68h0q9.67-5.58,19.34-11.17l19.35-11.17h0c5.9-3.47,16.39-2.83,22.51,1.72h0Z" transform="translate(0)" fill="#e1dfea"/><path d="M393.39,151.79l-3,1.73,1.74,14.94h0l3.43,2Q394.48,161.11,393.39,151.79Z" transform="translate(0)" fill="#e1dfea"/><path d="M399.33,201.3l-3.53-2a16.68,16.68,0,0,0,4.29,7.76C399.84,205.12,399.58,203.21,399.33,201.3Z" transform="translate(0)" fill="#e1dfea"/><path d="M408,166l-10.07,5.81c1.93,1.13,3.87,2.24,5.81,3.36L408,172.7Z" transform="translate(0)" fill="#e1dfea"/><path d="M398,191.2q-.78-5.91-1.57-11.82L393.59,181c.44,3.67.86,7.34,1.29,11l3.48,2C398.23,193.08,398.11,192.14,398,191.2Z" transform="translate(0)" fill="#e1dfea"/><path d="M404.54,216.41h0a3,3,0,0,0,.72,1.72,2.3,2.3,0,0,0,2.48.12c4.45-2.5,3.25-1.82,5.5-3.12l-9.61-5.54Zm24.72,4.31v.44l2.68,1.55c.15,1.16.31,2.33.46,3.49l-16-9.22-3.61,2.08a25.54,25.54,0,0,1-5.07,2.53l-.58.1c-3.05.39-5.35-1.63-5.76-4.86h0c-.44-3.27-.87-6.53-1.31-9.8-.25-1.91-.51-3.82-.76-5.73l3.47,2h0c.1.72.19,1.44.29,2.16a7.59,7.59,0,0,0,1.12.79h0l12.21,7.05,1.86-1.07,3.17,1.83-1.85,1.07Z" transform="translate(0)" fill="#e1dfea"/><path d="M399.4,197.73a2.58,2.58,0,0,0,2-.6c.26-.19.52-.43.47-.68s0-.28-.05-.42q-1.11-8.26-2.2-16.53l-3.47-2c.08.63.16,1.25.25,1.88q.78,5.91,1.57,11.82c.13.94.25,1.88.38,2.82s.25,1.89.38,2.84v0A1,1,0,0,0,399.4,197.73Z" transform="translate(0)" fill="#e1dfea"/><path d="M408,184.33v15.25l17.47,10.08V194.41Z" transform="translate(0)" fill="#ff73b5"/><path d="M408,172.7v4.91l17.47,10.08V140.05L408,130V172.7Z" transform="translate(0)" fill="#ff73b5"/><polygon points="407.98 129.96 425.45 140.05 465.67 116.83 448.2 106.74 443.02 109.73 438.48 112.35 407.98 129.96" fill="#ff73b5"/><polygon points="409.98 129.96 448.2 107.9 463.67 116.83 425.45 138.89 409.98 129.96" fill="#ff73b5"/><path d="M413.26,298.56h0l3.82-2.2a4,4,0,0,0,1.4-1.46c1-1.68.88-4.07.45-6l-4.26-2.46.07,3.79h0C416,294.31,415.17,297.35,413.26,298.56Z" transform="translate(0)" fill="#1a293b"/><path d="M400.54,285.32a16.45,16.45,0,0,0,6.92,12.51c2.32,1.5,4.37,1.63,5.8.73,1.91-1.21,2.69-4.25,1.49-8.29l.05,3.13-.58.35L401,286.14l0-3.43A7.38,7.38,0,0,0,400.54,285.32Z" transform="translate(0)" fill="#3f4f5d"/><path d="M415.58,282.24a3.19,3.19,0,0,1,2.15-1.17,1.43,1.43,0,0,1,.64.18v0l-13.19-7.61a1.69,1.69,0,0,0-1.44,0l-.28.13a5.53,5.53,0,0,0-2.57,4.44v.31l.07,4.19,0,3.43,13.19,7.61-.14-7.93A5.55,5.55,0,0,1,415.58,282.24Z" transform="translate(0)" fill="#d2448d"/><path d="M417.73,281.07a3.19,3.19,0,0,0-2.15,1.17,5.55,5.55,0,0,0-1.5,3.58l.14,7.93.58-.35-.05-3.13h0l-.07-3.79,0-1.46A3.52,3.52,0,0,1,415,284a4,4,0,0,1,2-2.13,1.2,1.2,0,0,1,1.05,0h0l1.08.63a2,2,0,0,0-.39-1,1.15,1.15,0,0,0-.33-.25A1.43,1.43,0,0,0,417.73,281.07Z" transform="translate(0)" fill="#9b346c"/><path d="M425.45,194.41v15.25l3.81,2.2v-9.24c-.29-2.17-.57-4.34-.86-6.51C427.41,195.55,426.43,195,425.45,194.41Z" transform="translate(0)" fill="#d2448d"/><path d="M429.26,202.62v9.24l1.34.77h0C430.15,209.3,429.71,206,429.26,202.62Z" transform="translate(0)" fill="#d2448d"/><path d="M451.84,253.28v3.52L465,264.42v-8.05a4.51,4.51,0,0,1-1.95-4.08h0c0-1.35,0-2.7,0-4.05l-7-4a1.67,1.67,0,0,0-1.43,0,1.39,1.39,0,0,0-.28.12,5.56,5.56,0,0,0-2.58,4.39v4.54Z" transform="translate(0)" fill="#d2448d"/><path d="M437.51,236.75c.81.79,2.21.34,3.18-.22h0l4.8-2.76-9.61-5.55.9,6.82h0A3,3,0,0,0,437.51,236.75ZM452.23,234l10.87,6.28h0c0,1.23,0,2.44,0,3.67l-14.44-8.34-6.38,3.68c-4.19,2.46-8.09.54-8.64-3.82h0c-.41-3.08-.83-6.16-1.24-9.24-.15-1.16-.31-2.33-.46-3.49-.13-.94-.25-1.86-.37-2.8l3.47,2c.12.93.25,1.86.37,2.79l16.44,9.49Z" transform="translate(0)" fill="#e1dfea"/><path d="M467.93,267a4.05,4.05,0,0,0,1.35-1.35c1.05-1.72.93-4.26.47-6.21l-4.14-2.39V261c1.2,4.11.35,7.16-1.63,8.3h0l3.94-2.28Z" transform="translate(0)" fill="#1a293b"/><path d="M465.61,256.66a3.49,3.49,0,0,1-.58-.29v8.05l.58-.34v-7.42Z" transform="translate(0)" fill="#9b346c"/><path d="M465.61,264.08l-.58.34-13.19-7.62v-3.52a7.42,7.42,0,0,0-.45,2.69,16.47,16.47,0,0,0,6.9,12.5c2.26,1.47,4.27,1.63,5.69.8,2-1.14,2.83-4.19,1.63-8.3Z" transform="translate(0)" fill="#3f4f5d"/><path d="M469.3,251.81l-3-1.75v2.22h0v.08a2.77,2.77,0,0,0,.08.67,3.87,3.87,0,0,1,1.84-1.33A1.6,1.6,0,0,1,469.3,251.81Z" transform="translate(0)" fill="#d2448d"/><path d="M469,252.48a1.14,1.14,0,0,0-.93-.11,3.11,3.11,0,0,0-1.54,1.12.44.44,0,0,0,.08.11.71.71,0,0,0,.5.19,4.56,4.56,0,0,0,2.26-.72h0l.33-.19-.7-.4Z" transform="translate(0)" fill="#e1dfea"/><path d="M469,317.52a5.57,5.57,0,0,1,2.57-4.45,2.52,2.52,0,0,1,.29-.12h0l-52.74-30.45-1.08-.63h0a1.2,1.2,0,0,0-1.05,0,4,4,0,0,0-2,2.13,3.52,3.52,0,0,0-.29,1.05l0,1.46,4.26,2.46L469,317.83Z" transform="translate(0)" fill="#e1dfea"/><path d="M463.08,252.29h0c0-1.35,0-2.7,0-4.05s0-2.87,0-4.3c0-1.23,0-2.44,0-3.67v-2.13l3.17,1.83v2.13l11.05,6.39,1.85-1.08a13.63,13.63,0,0,0,3.92,1.41l-2.6,1.5,14.2,8.19h0c1,.57,2.37,1,3.18.23a3,3,0,0,0,.73-1.71h0l.75-5.57c.33-2.51.67-5,1-7.52h0l3.48-2c-.42,3.07-.83,6.15-1.25,9.23q-.42,3.13-.85,6.29h0c-.56,4.41-4.5,6.25-8.64,3.82h0l-15.77-9.11-4.46,2.57L471,255.82h0c-2.06,1.21-3.94,1.4-5.34.84a3.49,3.49,0,0,1-.58-.29A4.51,4.51,0,0,1,463.08,252.29Zm6.88.44,4.19-2.42-7.88-4.55c0,1.43,0,2.86,0,4.3v2.22h0v.08a2.77,2.77,0,0,0,.08.67,1.18,1.18,0,0,0,.19.44.44.44,0,0,0,.08.11.71.71,0,0,0,.5.19,4.56,4.56,0,0,0,2.26-.72h0l.33-.19Z" transform="translate(0)" fill="#e1dfea"/><path d="M466.53,253.49a3.11,3.11,0,0,1,1.54-1.12,1.14,1.14,0,0,1,.93.11h0l.7.4.26-.15a1.58,1.58,0,0,0-.64-.91h0a1.6,1.6,0,0,0-1.12-.09,3.87,3.87,0,0,0-1.84,1.33A1.18,1.18,0,0,0,466.53,253.49Z" transform="translate(0)" fill="#9b346c"/><path d="M471.65,133.21c-.6,5.12-4.15,39.32-4.74,44.44l2.9,1.82c.45-3.89,4.38-40.64,4.83-44.53Z" transform="translate(0)" fill="#e1dfea"/><path d="M481.54,338.12h0l3.94-2.28c1.61-.93,2.16-2.92,2.16-4.77a13.37,13.37,0,0,0-.8-4.33,11.33,11.33,0,0,1-4.08-1h0l.06,3.07a13.59,13.59,0,0,1,.89,4.57C483.71,335.82,482.83,337.38,481.54,338.12Z" transform="translate(0)" fill="#1a293b"/><path d="M469.08,323.26c-.92,4.87,2.82,12.05,7.63,14.55a6.25,6.25,0,0,0,2.81.81,4,4,0,0,0,2-.5c1.29-.74,2.17-2.3,2.17-4.78a13.59,13.59,0,0,0-.89-4.57l.06,3.94-.58.35-13.18-7.61Z" transform="translate(0)" fill="#3f4f5d"/><path d="M482.77,325.7a11.33,11.33,0,0,0,4.08,1c5.12.27,9-3.69,8.93-10.06h0v-.37h0c0-6.3-3.68-13.56-8.46-17.77h0l-67.93-60.23c-4-3.53-6.59-9.35-6.57-13.54h0v-5.68a25.54,25.54,0,0,1-5.07,2.53l-.58.1v3.05h0c0,5.89,3.33,13.25,8.47,17.78h0l67.93,60.24c3.92,3.45,6.59,9.24,6.57,13.53h0v.38h0c0,1.65-.44,3.91-2.09,4.33a3.24,3.24,0,0,1-1.08.05,5.68,5.68,0,0,1-1.25-.28h0a4.7,4.7,0,0,0-2.88,3.29,2.42,2.42,0,0,0-.08.71v.92Z" transform="translate(0)" fill="#e1dfea"/><path d="M487,321.07a1.52,1.52,0,0,0-.51-.53.88.88,0,0,0-.22-.1,1.74,1.74,0,0,0-1.28.14,4.15,4.15,0,0,0-1.7,1.49,5.45,5.45,0,0,0-1.09,3.06l.14,7.93.58-.35-.06-3.94-.06-3.07v-.92a2.42,2.42,0,0,1,.08-.71,4.7,4.7,0,0,1,2.88-3.29h0A5.68,5.68,0,0,0,487,321.07Z" transform="translate(0)" fill="#9b346c"/><path d="M486.23,320.44a.88.88,0,0,1,.22.1h0l-13.18-7.61a1.69,1.69,0,0,0-1.44,0h0a2.52,2.52,0,0,0-.29.12,5.57,5.57,0,0,0-2.57,4.45v.31l.09,5.43,0,2.19,13.18,7.61-.14-7.93a5.45,5.45,0,0,1,1.09-3.06,4.15,4.15,0,0,1,1.7-1.49A1.74,1.74,0,0,1,486.23,320.44Z" transform="translate(0)" fill="#d2448d"/><path d="M501.45,175.12a.9.9,0,0,1-.18-.63v0c.06-.49.11-1,.17-1.47-1.35-.78-29.91-16-31.26-16.77v4.36l25.42,14.17a62,62,0,0,1,6.64.94l0-.19A1.1,1.1,0,0,1,501.45,175.12Z" transform="translate(0)" fill="#e1dfea"/><path d="M502.24,175.69a27.86,27.86,0,0,1,7.11,1.87l-4.91-2.84v.1h0a.17.17,0,0,1-.1.14,2.06,2.06,0,0,1-.33.17,4.29,4.29,0,0,1-1.73.37Z" transform="translate(0)" fill="#e1dfea"/><path d="M504.44,174.72q1.21-10.59,2.44-21.17l-3-1.72q-1.22,10.57-2.44,21.16c-.06.49-.11,1-.17,1.47v0a.9.9,0,0,0,.18.63,1.1,1.1,0,0,0,.81.38,4.29,4.29,0,0,0,1.73-.37,2.06,2.06,0,0,0,.33-.17.17.17,0,0,0,.1-.14h0Z" transform="translate(0)" fill="#e1dfea"/><path d="M517.55,225.25v2l2.83-1.63.3-2.19Z" transform="translate(0)" fill="#e1dfea"/><path d="M519.93,288.05a5.56,5.56,0,0,1,2.57-4.39,1.69,1.69,0,0,1,.28-.12h0l-49.91-28.82L471,255.82h0c-2.06,1.21-3.94,1.4-5.34.84v.39l4.14,2.39,50.18,29Z" transform="translate(0)" fill="#e1dfea"/><path d="M528.09,214.4a15,15,0,0,1-3.86,6.46c-.12.93-.25,1.85-.37,2.77l4.33-2.49h0a17.4,17.4,0,0,0,3-6h0c1.06-4.27,2.13-8.55,3.2-12.81q-1.92,1.09-3.83,2.2Q529.31,209.48,528.09,214.4Z" transform="translate(0)" fill="#e1dfea"/><path d="M536.32,306.49c1.6-.91,2.17-2.9,2.17-4.78a12.54,12.54,0,0,0-.45-3.2c-.11-.4-.24-.8-.38-1.19a11.42,11.42,0,0,1-4-1v3.22a13.4,13.4,0,0,1,.86,4.49c0,2.48-.89,4-2.17,4.77h0l3.94-2.28Z" transform="translate(0)" fill="#1a293b"/><path d="M519.93,293.89c-.94,4.9,2.85,12.13,7.68,14.6a6.28,6.28,0,0,0,2.8.77,3.9,3.9,0,0,0,2-.5c1.28-.73,2.17-2.29,2.17-4.77a13.4,13.4,0,0,0-.86-4.49v3.89l-.58.33-13.18-7.61Z" transform="translate(0)" fill="#3f4f5d"/><path d="M503.41,245.58c8.84,7.84,22.26,19.93,31.1,27.77,3.91,3.45,6.58,9.24,6.56,13.53h0v.38h0c0,1.67-.44,3.91-2.09,4.33a3.31,3.31,0,0,1-1.09.05,5.78,5.78,0,0,1-1.26-.29h0a4.94,4.94,0,0,0-2.31,2,4,4,0,0,0-.62,2v1a11.42,11.42,0,0,0,4,1l.4,0c5,.11,8.71-3.8,8.67-10.07h0v-.37h0c0-6.4-3.77-13.63-8.47-17.77h0l-20.49-18.17a6.21,6.21,0,0,1-5.6-.67h0c-.71-.41-6.2-8.81-6.91-9.22l-1.38.87C503.19,242.21,504.1,245.34,503.41,245.58Z" transform="translate(0)" fill="#e1dfea"/><path d="M535,194a5.08,5.08,0,0,0,1.3-.37c.09,0,.25-.13.27-.22h0l0-.14,4.92-19.73-2.86-1.65-4.92,19.73c-.11.41-.21.83-.31,1.24h0a.88.88,0,0,0,.72,1.14A2.37,2.37,0,0,0,535,194Z" transform="translate(0)" fill="#e1dfea"/><path d="M536.32,193.66a5.08,5.08,0,0,1-1.3.37,2.37,2.37,0,0,1-.84,0,.88.88,0,0,1-.72-1.14h0c.1-.41.2-.83.31-1.24l-19.92-11.5c2.5,2-41.41-25.3-41.49-22.84,0,.65-.73,3.71-.73,4.36,4.72,2.73,55.35,32.78,60.07,35.5l5.82-3.35-.89-.52,0,.14h0C536.57,193.53,536.41,193.61,536.32,193.66Z" transform="translate(0)" fill="#e1dfea"/><path d="M535.9,291.16a4.09,4.09,0,0,0-1.69,1.48,5.39,5.39,0,0,0-1.1,3v8.06l.58-.33v-8.07a4,4,0,0,1,.62-2,4.94,4.94,0,0,1,2.31-2h0a5.78,5.78,0,0,0,1.26.29,1.23,1.23,0,0,0-.49-.52.91.91,0,0,0-.22-.11A1.74,1.74,0,0,0,535.9,291.16Z" transform="translate(0)" fill="#9b346c"/><path d="M537.4,291.13l-13.18-7.61a1.66,1.66,0,0,0-1.44,0,1.69,1.69,0,0,0-.28.12,5.56,5.56,0,0,0-2.57,4.39v8.06l13.18,7.61v-8.06a5.39,5.39,0,0,1,1.1-3,4.09,4.09,0,0,1,1.69-1.48,1.74,1.74,0,0,1,1.28-.13.91.91,0,0,1,.22.11Z" transform="translate(0)" fill="#d2448d"/><path d="M537.52,200.53l3.45,2c.19-1.44.39-2.88.58-4.32Z" transform="translate(0)" fill="#e1dfea"/><path d="M537.66,297.32c.14.39.27.79.38,1.19h0l0-1.17Z" transform="translate(0)" fill="#9b346c"/><path d="M540,216c.71.45,1.71.81,2.22.15a1,1,0,0,0,.21-.48.5.5,0,0,0,0-.12c.13-.94.26-1.88.38-2.81l1.14-8.46.84-6.23.24-1.81-3.47,2c-.19,1.44-.39,2.88-.58,4.32-.55,4.05-1.09,8.11-1.65,12.17,0,.16,0,.33-.06.49h0a.71.71,0,0,0,.28.45A2.67,2.67,0,0,0,540,216Z" transform="translate(0)" fill="#e1dfea"/><path d="M489.57,146.2,482,150.57c0-1.82,0-3.64,0-5.48C484.5,145.46,487,145.82,489.57,146.2Z" transform="translate(0)" fill="#fac152"/><path d="M481.86,156.55a1.41,1.41,0,0,1,.64-.28,1,1,0,0,1,.87.3,1.86,1.86,0,0,1,.24,1.52A6.82,6.82,0,0,0,481.86,156.55Z" transform="translate(0)" fill="#a23042"/><path d="M480.07,140.71c1.08,2.49,1.66,3.84,1.9,4.38,0,1.84,0,3.66,0,5.48-.79.47-1.59.93-2.39,1.39C479.92,144.18,480,143.52,480.07,140.71Z" transform="translate(0)" fill="#fde86b"/><path d="M481.6,160.43a.91.91,0,0,1-1-.51,1.91,1.91,0,0,0,.44-.16A4.28,4.28,0,0,1,481.6,160.43Z" transform="translate(0)" fill="#a23042"/><path d="M480.64,159.92a1.82,1.82,0,0,1-.15-.69,3.48,3.48,0,0,1,.59.53A1.91,1.91,0,0,1,480.64,159.92Z" transform="translate(0)" fill="#a23042"/><path d="M480.36,157.19c1-1.87,3.22-2.9,4-.93a4,4,0,0,1-.23,2.55h0a7.25,7.25,0,0,0-.5-.73c.2-.87,0-1.8-1-1.84a.41.41,0,0,0-.15,0,1.41,1.41,0,0,0-.64.28,3.07,3.07,0,0,0-1,1.16,3,3,0,0,0-.38,1.54c.05.93.6,1.26,1.11,1.18a7.69,7.69,0,0,1,.43.85C480,162.23,478.9,159.91,480.36,157.19Z" transform="translate(0)" fill="#ef4f25"/><path d="M480.07,140.71c-.11,2.82-.15,3.52-.48,11.25q-15.42,8.88-30.82,17.78l-1.9-4.38-7.59-1.09Q459.67,152.48,480.07,140.71Z" transform="translate(0)" fill="#fac152"/><path d="M479.69,159.69a1.77,1.77,0,0,0,.85,1.66c-.34-.16-.67-.34-1-.51a1.32,1.32,0,0,1-.38-.3c-.87-1.06-.42-2.76.32-4A3.71,3.71,0,0,1,481,155a1.81,1.81,0,0,1,1.61-.14c.3.14.59.3.89.45-.74-.3-2.18.16-3.14,1.91A5,5,0,0,0,479.69,159.69Z" transform="translate(0)" fill="#fa7800"/><path d="M462.67,167.59a1.07,1.07,0,0,1,.85.27,1.82,1.82,0,0,1,.24,1.52,8,8,0,0,0-.63-.67c-.51-.46-.22-.12-.35-.8A1.73,1.73,0,0,0,462.67,167.59Z" transform="translate(0)" fill="#a23042"/><path d="M463,168.71c-.26-.21-.72-.68-1-.85a1.23,1.23,0,0,1,.67-.27A3.27,3.27,0,0,1,463,168.71Z" transform="translate(0)" fill="#a23042"/><path d="M462,167.86a7.58,7.58,0,0,1,2.2,2.06l.09.14s0,0,0,0c2.53,3.4,3.75,10.84,6.56,12.56a2.79,2.79,0,0,0,2,.28,8.27,8.27,0,0,0,2-.81h0a11.75,11.75,0,0,0,1.69-1.16c7-5.48,8.09-18.45,3.87-21.7a3.37,3.37,0,0,1,1.2-2.56c.2-.15.13-.13.25-.07,5.95,3.6,5.57,19-3.08,26.39-2.27,1.93-5.59,3.67-8.43,2.73-5.65-1.77-6.08-12.44-9.79-15.18A3.45,3.45,0,0,1,462,167.86Z" transform="translate(0)" fill="#c2485c"/><path d="M461.8,171.74a1,1,0,0,1-1-.52,1,1,0,0,0,.47-.16A7.11,7.11,0,0,1,461.8,171.74Z" transform="translate(0)" fill="#a23042"/><path d="M461.25,171.06a1.13,1.13,0,0,1-.47.16,1.41,1.41,0,0,1-.14-.68A3.72,3.72,0,0,1,461.25,171.06Z" transform="translate(0)" fill="#a23042"/><path d="M492.18,145.78c-27.24,15.71-34.65,20-44.13,25.48l2.63,55.8,44.13-25.47Zm-11.1,34.92a16.43,16.43,0,0,1-4.5,3.91,10.93,10.93,0,0,1-3.74,1.34c-6.81.74-7.94-9.1-10.53-13.42a1.92,1.92,0,0,1-1.47.2l-.17-.08h0l-1-.51a1.67,1.67,0,0,1-.85-1.69,5,5,0,0,1,2.06-4,1.67,1.67,0,0,1,1.87-.31l1,.52,0,0c1.07.38,1,2.23.53,3.37,0,0,0,0,0,0,1.9,2.55,3.06,7.39,4.82,10.57,1.1,1.86,2.25,2.81,4.29,2.13a13,13,0,0,0,6.39-5.39c3.44-5.36,3.88-12.49,2.24-16.1-1.06.48-1.37.11-2.5-.44a1.32,1.32,0,0,1-.38-.3c-.87-1.06-.42-2.76.32-4A3.71,3.71,0,0,1,481,155a1.81,1.81,0,0,1,1.61-.14c.3.14.59.3.89.45a1.76,1.76,0,0,1,.85,1,4,4,0,0,1-.23,2.55h0a1.53,1.53,0,0,1,.11.16C487.43,164.24,486.07,174.71,481.08,180.7Z" transform="translate(0)" fill="#fac152"/><path d="M462.64,166.59a1.69,1.69,0,0,1,1.45.3c.74.66.61,2.19.2,3.17a4.06,4.06,0,0,0-.53-.68,1.84,1.84,0,0,0-.24-1.52,1.07,1.07,0,0,0-.85-.27,1.54,1.54,0,0,0-.88.44,3.1,3.1,0,0,0-1,3.19,1,1,0,0,0,1,.52,5.08,5.08,0,0,1,.51.79c-1.7.91-2.94-.48-2.39-2.48A4.59,4.59,0,0,1,462.64,166.59Z" transform="translate(0)" fill="#ef4f25"/><path d="M461.37,167.39a5.37,5.37,0,0,0-1.45,2.66,3.17,3.17,0,0,0,0,1.5,1.86,1.86,0,0,0,.76,1.1h0l-1-.51a1.67,1.67,0,0,1-.85-1.69,5,5,0,0,1,2.06-4,1.69,1.69,0,0,1,1.87-.31l1,.52,0,0a1.8,1.8,0,0,0-1.12-.1A2.66,2.66,0,0,0,461.37,167.39Z" transform="translate(0)" fill="#fa7800"/><polygon points="448.05 171.26 450.68 227.06 445.77 220.29 445.77 165.99 448.05 171.26" fill="#fde86b"/><path d="M445.77,166l-9.1-1.31L480.8,139.2l2.27,5.26,9.11,1.32c-27.24,15.71-34.65,20-44.13,25.48Zm-6.49-1.72,7.59,1.09,1.9,4.38,40.8-23.54c-2.53-.38-5.07-.74-7.6-1.11-.24-.53-.6-1.37-1.9-4.38Q459.67,152.49,439.28,164.27Z" transform="translate(0)" fill="#ffec8e"/><polygon points="445.77 165.99 445.77 220.29 434.04 217.46 436.67 164.68 445.77 165.99" fill="#fac152"/><path d="M510.09,192.87c-7.73-.9-15.81-2.17-15.81-2.17l-2.1-44.92s-20.27,11.77-27.69,15.92c-3.05,1.71-6,3.7-9.36,4.89.26-.64,3.14-2.34,3.14-2.34L479.59,152l2.39-1.39s-1.75-9.43-1.91-9.86l-40.79,23.56c.39-.09,7.26,1.51,9.49,5.47,1.79,3.19,1.34,10.17.69,22.28a2.6,2.6,0,0,1-3,2.44c-2.43-.39-2.31,1.58-2.31,1.58l1.62.49,4.48,19.72.43,10.81s21.48,3.84,28.24,3.55A22.7,22.7,0,0,0,491,226.8c1.86-1.27,3.34-2.81,3.41-5.26,2.1-1.22,4.15-2.44,6.2-3.62,4.91-2.8,9.48-6.3,15.25-7.3a6.4,6.4,0,0,0,1.11-.4,3.25,3.25,0,0,0,2.27-2.14,34.7,34.7,0,0,0,.38-3.64A10.81,10.81,0,0,0,510.09,192.87Zm-46.56,34.61c1.73-.71,7.67-1.15,11.76-.71C471.54,228.23,467.74,229.2,463.53,227.48Zm20.31-54.68a12.21,12.21,0,0,1-.29-1.56,39,39,0,0,0-1.43-10.84,2.26,2.26,0,0,1,.84-2.85,13.74,13.74,0,0,1,2,2.89C485.58,164.72,485.58,168.59,483.84,172.8Z" transform="translate(0)" fill="#dbd0f2" style="mix-blend-mode:multiply"/><path d="M453.45,166.74h0l-1,.58C452.77,166.38,453.16,165.81,453.45,166.74Z" transform="translate(0)" fill="#d64a78"/><path d="M451.63,196.72a.53.53,0,0,1-.11.24.47.47,0,0,1-.45.16c-7.27-1.13-6.83-1.05-6.92-1.08a.37.37,0,0,1-.22-.22c-.31-1.26-.67-5.82-.76-7.13a79.9,79.9,0,0,1,.69-18.67,22.21,22.21,0,0,1,1.2-4.7c.2-.39.46-.7.89-.64,7.45,1.16,6.95,1,7.19,1.25a1.68,1.68,0,0,1,.38.78l-.07,0c-.4-1.27-.93.22-1.27,1.52a48.41,48.41,0,0,0-1.15,6.81A92.88,92.88,0,0,0,451.63,196.72Z" transform="translate(0)" fill="#f50054"/><polygon points="518.33 175.35 518.33 183.41 514.14 179.38 518.33 175.35" fill="#8140ff"/><path d="M516.28,176c-.27.25-3.22,3.08-3.49,3.35,0,1.12,0,2.24,0,3.36H469.73c0-1.12,0-2.24,0-3.36Q468,177.7,466.25,176Z" transform="translate(0)" fill="#5f26cf"/><path d="M516.28,182.74H512.8c0-1.12,0-2.24,0-3.36Z" transform="translate(0)" fill="#8140ff"/><path d="M505.67,190.14c0-.32,0-.45,0-.67,0-1.21.06-1.33-.08-1.63a1.14,1.14,0,0,0-.33-.42A1.53,1.53,0,0,1,505.67,190.14Z" transform="translate(0)" fill="#e95950"/><path d="M501.47,188.86a2.93,2.93,0,0,1,4-2.3,2.52,2.52,0,0,1,1.9,2.32,2.59,2.59,0,0,1-1.71,2.26s.05-.66.05-1a1.77,1.77,0,0,0,.56-.68c.62-1.44-1.23-2.71-2.68-2.06h0c-1.27.63-1.43,1.94-.48,2.68,0,.1,0,.69-.05,1A2.49,2.49,0,0,1,501.47,188.86Z" transform="translate(0)" fill="#f5b538"/><path d="M503.11,186.66a2.66,2.66,0,0,0-1.64,2.2v-.62a2.46,2.46,0,0,1,1-1.86,3.33,3.33,0,0,1,3.94,0,2.48,2.48,0,0,1,.95,1.83v.65C507.28,186.89,504.83,185.87,503.11,186.66Z" transform="translate(0)" fill="#f8e150"/><path d="M464.21,183.42v48.93h54.12V183.42Zm43.12,5.46a2.59,2.59,0,0,1-1.71,2.26c-.28,5.07-1.74,10.73-5.64,13.9a12.92,12.92,0,0,1-10.68,2.3c-7.48-1.59-10-8.63-10.48-16.33a2.59,2.59,0,0,1-1.69-2.25v-.66a2.51,2.51,0,0,1,1-1.83,3.35,3.35,0,0,1,4,0,2.5,2.5,0,0,1,.95,1.83v.66a2.49,2.49,0,0,1-1.56,2.2,28.33,28.33,0,0,0,.67,4.95c.85,3.72,2.84,7.37,6.48,8.53a11.27,11.27,0,0,0,8.24-.44c3.66-1.82,5.22-6,5.88-10.07,0-.1.31-2.08.31-2.85a2.49,2.49,0,0,1-1.54-2.19v-.65a2.46,2.46,0,0,1,1-1.86,3.35,3.35,0,0,1,3.94,0,2.48,2.48,0,0,1,.95,1.83Z" transform="translate(0)" fill="#5f26cf"/><path d="M481.36,188.13a1.09,1.09,0,0,0-.45-.86,1.8,1.8,0,0,1,1.1,1.49,1.59,1.59,0,0,1-.62,1.21C481.38,189.83,481.36,188.28,481.36,188.13Z" transform="translate(0)" fill="#e95950"/><path d="M503.09,189.4v-.08a.57.57,0,0,1,0,.13C503.08,189.93,503.08,189.52,503.09,189.4Zm-24.32-.06c0-1.23-.06-1.32.08-1.62a1,1,0,0,1,.3-.41,2.08,2.08,0,0,1,1.76,0,1.08,1.08,0,0,1,.45.88,33.55,33.55,0,0,0,.74,7.76c1.18,5.19,4.11,8.86,9.39,9.08,5.46.32,9.82-2.53,11.21-11.06,0-.12.26-1.7.31-2.83,0-.09.05-.7.05-1a1.53,1.53,0,0,1-.61-1.21,2,2,0,0,1,2.68-1.51l.15.06a1.14,1.14,0,0,1,.33.42c.14.31.08.43.08,1.63a30.36,30.36,0,0,1-1.41,9c-1.73,5.19-5.29,8.67-10.78,9.13C483,208.42,478.77,199.75,478.77,189.34Z" transform="translate(0)" fill="#aa682d"/><path d="M479.15,187.31a1.14,1.14,0,0,0-.39.79c0,.6,0,1.33,0,1.9h0A1.52,1.52,0,0,1,479.15,187.31Z" transform="translate(0)" fill="#e95950"/><path d="M477.13,188.76a2.57,2.57,0,0,1,1.92-2.34,2.93,2.93,0,0,1,3.94,2.34,2.49,2.49,0,0,1-1.56,2.2c0-.22,0-.45,0-.66,0-.48-.1-.19.24-.58a1.54,1.54,0,0,0,.37-1,1.8,1.8,0,0,0-1.1-1.49c-1.44-.66-3.29.63-2.68,2a1.66,1.66,0,0,0,.55.68h0c0,.75,0,.9,0,1A2.57,2.57,0,0,1,477.13,188.76Z" transform="translate(0)" fill="#f5b538"/><path d="M477.13,188.1a2.51,2.51,0,0,1,1-1.83,3.09,3.09,0,0,1,2-.64A2.71,2.71,0,0,1,483,188.1v.66a2.68,2.68,0,0,0-1.61-2.22c-1.75-.82-4.21.24-4.25,2.22Z" transform="translate(0)" fill="#f8e150"/><path d="M469.74,179.38c0,1.12,0,2.24,0,3.36h-3.48C470,179.08,469.29,179.83,469.74,179.38Z" transform="translate(0)" fill="#8140ff"/><polygon points="468.39 179.38 464.21 183.41 464.21 175.35 468.39 179.38" fill="#8140ff"/><path d="M466.25,182.74h50l-3.49-3.36c.27-.27,3.22-3.1,3.49-3.35h-50q1.75,1.66,3.49,3.35C469.26,179.86,470.1,179,466.25,182.74Zm-2,.68,4.18-4-4.18-4h54.12l-4.19,4,4.19,4Z" transform="translate(0)" fill="#a482f4"/><g style="mix-blend-mode:multiply"><path d="M464.22,211.2c0-.35,0-5,0-10.28v11.56C464.22,212.05,464.21,211.63,464.22,211.2Z" transform="translate(0)" fill="#c6b3eb"/></g><path d="M539.56,228.15a44.1,44.1,0,0,0,1.86-5.69h0c-2.36-.14-4.85.14-6.65-2a2.09,2.09,0,0,0-1.17-.5,32.35,32.35,0,0,0-4.54-.93c-2.75-.19-5.53-.14-8.3-.22a25.57,25.57,0,0,1-2.54-.36s.29-31.08.11-35H464.21s0,27.43,0,27.78,0,.85,0,1.28c0,1.16.09,2.32,0,3.52v8.4c0,.86,0,1.73,0,2.6v2.75a28.45,28.45,0,0,0,.21,3.18c1.14,0,2.16.1,3.18.1,12.89,0,25.77,0,38.67,0a244.59,244.59,0,0,0,25.09-.86,5.91,5.91,0,0,1,1.35.2,9.6,9.6,0,0,1-5.54,1.48c-12.27.22-13.47.13-14.78.29-.26,0-.47.35-.76.59.88.77,1.76.52,2.59.52q5.57,0,11.16,0a38,38,0,0,0,4.4-.19c2.14-.28,4.39-.52,6-2.17A2.94,2.94,0,0,1,538,232c11.92-.55-3.88.54,0,0C536.6,230.59,540.65,229.25,539.56,228.15Zm-62.23-40.54c1.91-2.3,3.24-2.37,5.39-.23A4.91,4.91,0,0,0,477.33,187.61Zm28.37,2.78c-.75,2.92-1.43,5.87-2.33,8.74A11.83,11.83,0,0,1,499,205.4a9.91,9.91,0,0,1-6.74,1.91c.13-1.87.11-1.94,1.66-2.12a8.51,8.51,0,0,0,7.14-5.28,33,33,0,0,0,1.81-5.9,36.79,36.79,0,0,0,.47-4.36c0-.25,0-.61.14-.74.35-.32.81-.74,1.2-.71s.81.53,1,.92A2.12,2.12,0,0,1,505.7,190.39Zm-3-3.52c1.38-1.31,2.36-1.32,4,0Zm23.05,34.62c-2.25,0-4.63.34-7.23-.89,4.75-.87,11.19-.41,14.2,1C530.2,222.4,528,221.49,525.75,221.49Z" transform="translate(0)" fill="#b0a7c2" style="mix-blend-mode:multiply"/><path d="M431.63,216.35a2.64,2.64,0,0,0,2-.61c.19-.14.47-.38.48-.62h0l-.06-.48q-1.1-8.26-2.2-16.52l-3.47-2c.29,2.17.57,4.34.86,6.51.45,3.34.89,6.68,1.34,10,.12,1,.25,1.91.38,2.87h0A1,1,0,0,0,431.63,216.35Z" transform="translate(0)" fill="#e1dfea"/><path d="M466.3,233.71v-.46c0-2.47,0-4.94,0-7.4s0-5.22,0-7.83l-3.18-1.83,0,11.5v3.73c0,.84,0,1.68,0,2.52h0a1.09,1.09,0,0,0,.11.48c.28.59.92.63,1.54.45s1.53-.67,1.53-1.16Z" transform="translate(0)" fill="#e1dfea"/><path d="M538.69,171.92l2.86,1.65,13.54,7.82h0a3.27,3.27,0,0,1,1,.81c.19.24.17.31.17.33v.05a1.69,1.69,0,0,1-.47.6,4.28,4.28,0,0,1-.69.49h0q-8.79,5.07-17.57,10.15l-5.82,3.35-14.15,8.17-25.88,14.95h0a11.21,11.21,0,0,1-9.76,0h0L478,218l-26.16-15.1-22.59-13-3.81-2.21L408,177.61l-4.26-2.46c-1.94-1.12-3.88-2.23-5.81-3.36h0l-2.34-1.35-3.43-2h0l-11.82-6.83h0a3.52,3.52,0,0,1-1-.81c-.2-.24-.18-.31-.18-.33a.18.18,0,0,1,0-.05,1.61,1.61,0,0,1,.47-.6,4.28,4.28,0,0,1,.69-.49h0l10.08-5.83,3-1.73L408,143.37v-6.72L380.4,152.57l.36,1.48c.15.7-.07,1.66-.68,1.86a4.39,4.39,0,0,1-1.87-.28,10.14,10.14,0,0,0-2.12-.31s-.2,0-.19,0a6.75,6.75,0,0,0-2.59,5.13,7.32,7.32,0,0,0,4.09,6.18h0l14.69,8.48,4.07,2.35,3.47,2,8.35,4.83,17.47,10.08c1,.57,2,1.14,2.95,1.7l3.47,2,20,11.54,11.31,6.53,3.18,1.83,6.77,3.91,4.9,2.83,1,.56h0a17,17,0,0,0,15.59,0h0l9-5.19,3.48-2,10.5-6.07h0l5.06-2.91h0l3.47-2,4.46-2.58q1.9-1.11,3.83-2.2h0l3.15-1.82,4-2.32,3.47-2,13-7.49h0a6.72,6.72,0,0,0,0-12.36h0L465.67,123v6.72c2,1.15,4,2.31,6,3.45l3,1.73,29.24,16.89,3,1.72Z" transform="translate(0)" fill="#e1dfea"/><path d="M542.19,216.11c-.51.66-1.51.3-2.22-.15a2.67,2.67,0,0,1-.43-.32.71.71,0,0,1-.28-.45h0c0-.16,0-.33.06-.49l-11.13,6.43h0l-4.33,2.49-.39,2.9a1.14,1.14,0,0,1-.22.52c-.51.66-1.51.29-2.23-.15a4.23,4.23,0,0,1-.42-.32.71.71,0,0,1-.28-.45h0l.06-.49-2.83,1.63-12.72,7.35c-.13.93-.26,1.87-.38,2.8h0a.51.51,0,0,1,0,.13,1.2,1.2,0,0,1-.21.49c-.51.65-1.53.29-2.23-.15-.25-.16-.7-.49-.7-.78v0l.06-.44-9.71,5.61h0a11.21,11.21,0,0,1-9.76,0h0L478,240l-11.71-6.76v.46h0c0,.49-1,1-1.53,1.16s-1.26.14-1.54-.45a1.09,1.09,0,0,1-.11-.48h0c0-.84,0-1.68,0-2.52-1.08-.63-2.15-1.25-3.23-1.86q-4-2.34-8-4.65l-17.78-10.27.06.48h0c0,.24-.29.48-.48.62a2.64,2.64,0,0,1-2,.61,1,1,0,0,1-.65-.84h0c-.13-1-.26-1.91-.38-2.87h0l-1.34-.77-3.81-2.2L408,199.58,401.83,196h0c0,.14,0,.28.05.42s-.21.49-.47.68a2.58,2.58,0,0,1-2,.6,1,1,0,0,1-.66-.82v0c-.13-1-.25-1.89-.38-2.84l-3.48-2-8.2-4.73h0a3.52,3.52,0,0,1-1-.81c-.19-.24-.17-.32-.17-.33a.08.08,0,0,1,0,0,1.82,1.82,0,0,1,.47-.6,3.61,3.61,0,0,1,.69-.49h0l6.91-4,2.82-1.62c-.09-.63-.17-1.25-.25-1.88l-4.07-2.35L383.77,180a6.72,6.72,0,0,0,0,12.35h0l12,7,3.53,2,3.47,2h0l15.48,8.93,3.17,1.83,7.81,4.51,2.31,1.33,3.47,2,16.81,9.7,2.23,1.29,9,5.22,3.17,1.83L479,247.27h0l.22.13a13.63,13.63,0,0,0,3.92,1.41,17.56,17.56,0,0,0,2.73.34,15.94,15.94,0,0,0,8.72-1.88h0l5.81-3.35h0l3.48-2,13.7-7.92,1.86-1.06c1.15-.68,2.31-1.34,3.47-2h0L538.35,222l3.47-2,9.8-5.65h0a6.72,6.72,0,0,0,0-12.36h0l-6.84-4-.84,6.23,4.77,2.76h0a3.52,3.52,0,0,1,1,.81.68.68,0,0,1,.18.33.18.18,0,0,1,0,.05,1.69,1.69,0,0,1-.47.6,4.11,4.11,0,0,1-.69.49h0l-5.91,3.42c-.12.93-.25,1.87-.38,2.81a.5.5,0,0,1,0,.12A1,1,0,0,1,542.19,216.11Z" transform="translate(0)" fill="#e1dfea"/><path d="M502,237.89c.7.44,1.72.8,2.23.15a1.2,1.2,0,0,0,.21-.49s0-.08,0-.13h0c.12-.93.25-1.87.38-2.8l2.22-16.49-3.48,2-2.22,16.5-.06.44v0C501.29,237.4,501.74,237.73,502,237.89Z" transform="translate(0)" fill="#e1dfea"/><path d="M520.32,226.13a.71.71,0,0,0,.28.45,4.23,4.23,0,0,0,.42.32c.72.44,1.72.81,2.23.15a1.14,1.14,0,0,0,.22-.52l.39-2.9c.12-.92.25-1.84.37-2.77q.93-6.86,1.85-13.72l-3.47,2h0q-1,7.14-1.93,14.3l-.3,2.19-.06.49Z" transform="translate(0)" fill="#e1dfea"/><path d="M512.16,250.27a6.21,6.21,0,0,0,5.6.67,5.38,5.38,0,0,0,3-4.49h0q.81-6.06,1.63-12.12c.15-1.13.31-2.27.46-3.4-1.16.67-2.32,1.33-3.47,2L517.64,246h0a2.94,2.94,0,0,1-.73,1.71c-.81.78-2.2.34-3.18-.22h0c-.17-.1-8.33-6.37-8.5-6.47-1,.71,5.92,7.48,4.79,8l2.12,1.23h0Z" transform="translate(0)" fill="#e1dfea"/><path d="M522.88,230.92c-.15,1.13-.31,2.27-.46,3.4l8.66,5h0c4.14,2.42,8.07.59,8.64-3.82h0q1-7.77,2.09-15.53l-3.47,2-1.77,13.1h0a2.93,2.93,0,0,1-.72,1.71c-.81.79-2.21.35-3.18-.22h0Z" transform="translate(0)" fill="#e1dfea"/><path d="M408.23,415.38v-1.59c32.39-18.69,30.72-17.63,31.12-18.17a1.72,1.72,0,0,0,.37-.94v1.6a1.9,1.9,0,0,1-.71,1.3C438.78,397.76,441.35,396.26,408.23,415.38Z" transform="translate(0)" fill="#d2448d"/><polygon points="427.5 393.87 423.37 396.26 410.95 389.08 415.09 386.69 427.5 393.87" fill="#f0e0dc"/><polygon points="411.31 384.51 407.18 386.9 394.75 379.72 398.88 377.35 411.31 384.51" fill="#f0e0dc"/><path d="M409.47,404.31a4,4,0,0,1-2.28-.46,1.25,1.25,0,0,1-.77-1.33c.07-.55.64-1.13,1.67-1.73a6.74,6.74,0,0,1,3-1,4,4,0,0,1,2.27.45,1.31,1.31,0,0,1,.81,1.35c-.11.55-.69,1.16-1.81,1.79A6.15,6.15,0,0,1,409.47,404.31Z" transform="translate(0)" fill="#ff73b5"/><path d="M408.23,413.79v1.6l-11.05,6.37v-1.58Z" transform="translate(0)" fill="#821e4d"/><path d="M332.33,370l75.9,43.8-11.05,6.39-75.87-43.83Z" transform="translate(0)" fill="#ad3970"/><path d="M407.19,403.85a4,4,0,0,0,2.28.46,6.15,6.15,0,0,0,2.87-.93c1.12-.63,1.7-1.24,1.81-1.79a1.31,1.31,0,0,0-.81-1.35,4,4,0,0,0-2.27-.45,6.74,6.74,0,0,0-3,1c-1,.6-1.6,1.18-1.67,1.73A1.25,1.25,0,0,0,407.19,403.85Zm-2.27-2.34c.8-1.27,2.88-2.21,4.36-2.57a7,7,0,0,1,5.07.57c.76.43,1.34,1.09,1.12,1.93l4-2.32,1.38.79-11.21,6.47-1.27-.74c2.45-1.39.1.28-2.44-1.21C404.75,403.75,404.17,402.68,404.92,401.51Z" transform="translate(0)" fill="#d2448d"/><path d="M397.9,399.58,406,394.9l1.24.72-1.23.71a7.58,7.58,0,0,1,2-.16,2.43,2.43,0,0,1,2.11,1.43l-1.75.47c-.39-1-1.91-1.3-3-.93-1.35.4-1.55.64-6.07,3.23Z" transform="translate(0)" fill="#d2448d"/><polygon points="395.12 375.16 390.97 377.56 378.56 370.38 382.69 367.99 395.12 375.16" fill="#f0e0dc"/><path d="M394.51,396.19c-.79-.12-2.52-.74-2.61-1.53-.07-.58.69-1,1.34-1,1.57-.17,2.74,1,5.23,1.58A5.14,5.14,0,0,1,394.51,396.19Z" transform="translate(0)" fill="#ff73b5"/><path d="M394.22,393.68c-1.71-.36-3.38.79-1.48,1.89a5.39,5.39,0,0,0,3.63.6,7.94,7.94,0,0,0,2.1-1C396.72,394.78,395.12,393.86,394.22,393.68Zm-4.28.77c-.07-1.05,1.24-1.67,2.3-1.85,2.82-.47,4.57,1.26,7.3,2,.42-.23,1.2-.62,1.17-1.12-.12-.87-2-1.72-2.88-1.8a4.8,4.8,0,0,0-1.89.31l-1.15-.88a6.05,6.05,0,0,1,4-.24,8.55,8.55,0,0,1,3.57,2,1.06,1.06,0,0,1-.16,1.7c-.69.57-4.2,2.4-5.37,3.29a2,2,0,0,0-.63.76l-1.43-.83a2.27,2.27,0,0,1,.72-.74,8.83,8.83,0,0,1-4.16-1.05C390.45,395.49,390,395,389.94,394.45Z" transform="translate(0)" fill="#d2448d"/><path d="M383.35,384.63a11.55,11.55,0,0,1,7.6-1.43c3.61.63,7.11,3,4.54,5.61l-1.79-.64c1-1.12,1-2.14-.65-3.08a7.48,7.48,0,0,0-5.66-.63,9.71,9.71,0,0,0-4.58,2.71c-.89,1.22-.19,2.34,1.07,3.08a7.13,7.13,0,0,0,6.12.25l1.12,1.06a10,10,0,0,1-8.38-.51,4.63,4.63,0,0,1-2.2-2.12C379.88,387.2,381.74,385.56,383.35,384.63Z" transform="translate(0)" fill="#d2448d"/><polygon points="378.92 365.8 374.78 368.2 362.35 361.04 366.5 358.65 378.92 365.8" fill="#f0e0dc"/><path d="M438.58,393.08c.54.32,1.23,1,1.14,1.6a2,2,0,0,1-1.14,1.6l-30.35,17.51L332.33,370c33.06-19.11,30.6-17.8,31.69-18a6.19,6.19,0,0,1,4.18.5Zm-27.63-4,12.42,7.18,4.13-2.39-12.41-7.18ZM406.68,400c-2.75,1.6-2.56,3.4-.74,4.45,2.53,1.49,4.88-.17,2.44,1.21l1.27.74,11.21-6.47-1.38-.79-4,2.32C416,399.39,411.26,397.34,406.68,400ZM406,394.9l-8.11,4.68,1.38.79c4.58-2.62,4.75-2.84,6.07-3.23,1.16-.37,2.67-.06,3,.93l1.75-.47a2.43,2.43,0,0,0-2.11-1.43,7.58,7.58,0,0,0-2,.16l1.23-.71Zm-11.26-15.18,12.43,7.18,4.13-2.39-12.43-7.16Zm-3.87,13.34c-1.3.77-1.39,1.87.47,2.94a8.86,8.86,0,0,0,4.16,1.05,2.27,2.27,0,0,0-.72.74l1.43.83c.33-.68.92-1,3-2.22.55-.31,2.55-1.42,3-1.83a1.06,1.06,0,0,0,.16-1.7,8.45,8.45,0,0,0-3.57-2,6.12,6.12,0,0,0-4,.24l1.15.88a4.8,4.8,0,0,1,1.89-.31c.9.08,2.76.93,2.88,1.8,0,.5-.76.9-1.17,1.12-1.53-.41-3.19-1.33-4.36-1.74A5.51,5.51,0,0,0,390.88,393.06Zm.24-1.5L390,390.5a7.13,7.13,0,0,1-6.12-.25c-1.25-.73-2-1.85-1.07-3.08a9.73,9.73,0,0,1,4.58-2.71,7.44,7.44,0,0,1,5.66.63c1.61.94,1.66,2,.65,3.08l1.79.64c2.58-2.63-.94-5-4.54-5.61a11.55,11.55,0,0,0-7.6,1.43c-1.61.93-3.47,2.57-2.81,4.3a4.63,4.63,0,0,0,2.2,2.12A10,10,0,0,0,391.12,391.56Zm-21.33-21.28c-.25-.81-1-1.21-1.74-1.6-1.45-.81-2-1.2-4.18-2.41-.78-.43-1.55-.86-2.33-1.33a11.1,11.1,0,0,0-1.89-1,6.6,6.6,0,0,0-3.18-.23,14.77,14.77,0,0,0-4.3,2.14c-1.85,1.15-1.85,1.07-2.81,1.62-1.41.87-1.43,2-.5,2.83.42.36,6.45,3.73,7.64,4.46a6.45,6.45,0,0,0,3.48,1.31c3,.19,4.69-1.68,8-3.44.65-.33,1.53-.75,1.79-1.55A1.33,1.33,0,0,0,369.79,370.28Zm5-2.08,4.14-2.4-12.42-7.15L362.35,361Zm20.34,7L382.69,368l-4.13,2.39L391,377.56Z" transform="translate(0)" fill="#ff73b5"/><path d="M354.18,373.43c-4-2.31-3.5-2.06-4.18-2.43s-1.52-.8-1.72-1.6a1.46,1.46,0,0,1,.45-1.46,5.69,5.69,0,0,1,1.35-.88c3.23-1.69,4.95-3.64,8-3.44a6.53,6.53,0,0,1,3.47,1.32c.79.48,7.12,4,7.64,4.46a1.49,1.49,0,0,1,.57,1.67c-.26.78-1.12,1.21-1.79,1.55-3.28,1.76-5,3.63-8,3.44C358.09,375.94,358,375.54,354.18,373.43Z" transform="translate(0)" fill="#f3e187"/><path d="M319.92,380.34c-1.61-.94-1.45-2.4,0-3.18l1.38-.81c.17,0-.82-.47,75.88,43.83l-1.38.79a6.15,6.15,0,0,1-4.2.5C390.47,421.22,395.23,423.83,319.92,380.34Z" transform="translate(0)" fill="#ff73b5"/><path d="M318.77,380.34v-1.6a1.72,1.72,0,0,0,.36.95c.38.51-4.21-2.24,71.15,41.28a6.17,6.17,0,0,0,4.2.5,8.52,8.52,0,0,0,2.7-1.29v1.58l-1.38.79a6,6,0,0,1-4.2.52c-1.06-.24,3.53,2.28-71.68-41.14A1.94,1.94,0,0,1,318.77,380.34Z" transform="translate(0)" fill="#d2448d"/><rect x="48.5" y="309.57" width="92.14" height="29.94" rx="14.97" fill="#ff7f85"/><path d="M60.37,201.11c1.54.12,2.84.28,3.9.47L63.91,205c-3,0-5.33-.07-6.87-.07-1.08,0-1.84,0-2.26.06a1.52,1.52,0,0,0-.9.29,1.08,1.08,0,0,0-.27.85,1,1,0,0,0,.36.92,3.84,3.84,0,0,0,1,.41l1,.26L60.51,209a7,7,0,0,1,3.4,1.82,4.93,4.93,0,0,1,1,3.38,5.75,5.75,0,0,1-.83,3.36,4.27,4.27,0,0,1-2.57,1.65,19.79,19.79,0,0,1-4.77.45,49.43,49.43,0,0,1-8-.61l.33-3.48q1.3.08,6.18.08c1.28,0,2.22,0,2.84-.09a2.55,2.55,0,0,0,1.28-.38,1.07,1.07,0,0,0,.36-.87,1,1,0,0,0-.39-.92,3.84,3.84,0,0,0-1.12-.47c-.49-.13-.82-.23-1-.27l-4.44-1.2a6.36,6.36,0,0,1-3.4-2,5.59,5.59,0,0,1-.94-3.45,5.3,5.3,0,0,1,.74-3,4.22,4.22,0,0,1,2.39-1.61,15.55,15.55,0,0,1,4.46-.51C57.38,200.92,58.83,201,60.37,201.11Z" transform="translate(0)" fill="#ff7f85"/><path d="M84.43,202.16a5,5,0,0,1,1.28,3.69v13.37H80.4V207.51a2.68,2.68,0,0,0-.38-1.65,1.72,1.72,0,0,0-1.36-.45,6.85,6.85,0,0,0-2.17.38A20,20,0,0,0,73.71,207v12.18H68.36v-25.3h5.35l0,6.18a22.43,22.43,0,0,1-.32,3.72,11.88,11.88,0,0,1,7.3-2.93A5.1,5.1,0,0,1,84.43,202.16Z" transform="translate(0)" fill="#ff7f85"/><path d="M103.78,201.83a5.8,5.8,0,0,1,2.9,3,13.91,13.91,0,0,1,.9,5.51,13.77,13.77,0,0,1-.9,5.49,5.72,5.72,0,0,1-2.9,3,12.93,12.93,0,0,1-5.35.92,13,13,0,0,1-5.38-.92,5.66,5.66,0,0,1-2.89-3,13.57,13.57,0,0,1-.91-5.49,13.85,13.85,0,0,1,.91-5.53,5.62,5.62,0,0,1,2.89-3,12.87,12.87,0,0,1,5.38-.93A12.74,12.74,0,0,1,103.78,201.83Zm-7.55,3.53A2.52,2.52,0,0,0,95.16,207a14.23,14.23,0,0,0-.3,3.36,13.87,13.87,0,0,0,.3,3.31,2.5,2.5,0,0,0,1.07,1.59,4.38,4.38,0,0,0,2.2.45,4.28,4.28,0,0,0,2.17-.45,2.5,2.5,0,0,0,1.07-1.59,13.77,13.77,0,0,0,.31-3.31,14.13,14.13,0,0,0-.31-3.36,2.52,2.52,0,0,0-1.07-1.61,4.28,4.28,0,0,0-2.17-.45A4.38,4.38,0,0,0,96.23,205.36Z" transform="translate(0)" fill="#ff7f85"/><path d="M127.73,203.35q1.47,2.43,1.47,7.12a16.24,16.24,0,0,1-.76,5.5,5.31,5.31,0,0,1-2.22,2.87,7.53,7.53,0,0,1-3.82.85,9.79,9.79,0,0,1-6-1.73,30.08,30.08,0,0,1,.11,3.83v4.3h-5.32V201.4h4.34l.4,2.6a7.91,7.91,0,0,1,3.07-2.2,9.9,9.9,0,0,1,4-.87A5.05,5.05,0,0,1,127.73,203.35Zm-5.27,12a2.51,2.51,0,0,0,.94-1.52,13.83,13.83,0,0,0,.3-3.33,15.34,15.34,0,0,0-.27-3.29,2.75,2.75,0,0,0-.87-1.61,2.64,2.64,0,0,0-1.64-.45,5.52,5.52,0,0,0-2.06.4,13.67,13.67,0,0,0-2.31,1.3V215l1.12.29c.55.15,1.06.25,1.53.33a9.51,9.51,0,0,0,1.39.11A3.64,3.64,0,0,0,122.46,215.32Z" transform="translate(0)" fill="#ff7f85"/><path d="M149.42,203.35q1.47,2.43,1.47,7.12a16,16,0,0,1-.76,5.5,5.31,5.31,0,0,1-2.22,2.87,7.53,7.53,0,0,1-3.82.85,9.79,9.79,0,0,1-6-1.73,30.08,30.08,0,0,1,.11,3.83v4.3h-5.32V201.4h4.34l.4,2.6a7.91,7.91,0,0,1,3.07-2.2,9.93,9.93,0,0,1,4-.87A5.05,5.05,0,0,1,149.42,203.35Zm-5.27,12a2.51,2.51,0,0,0,.94-1.52,13.83,13.83,0,0,0,.3-3.33,15.34,15.34,0,0,0-.27-3.29,2.75,2.75,0,0,0-.87-1.61,2.64,2.64,0,0,0-1.64-.45,5.52,5.52,0,0,0-2.06.4,13.67,13.67,0,0,0-2.31,1.3V215l1.12.29c.55.15,1.06.25,1.53.33a9.51,9.51,0,0,0,1.39.11A3.64,3.64,0,0,0,144.15,215.32Z" transform="translate(0)" fill="#ff7f85"/><path d="M160.14,195.07v2a1.37,1.37,0,0,1-1.55,1.55H156.2a1.37,1.37,0,0,1-1.55-1.55v-2a1.37,1.37,0,0,1,1.55-1.55h2.39A1.37,1.37,0,0,1,160.14,195.07Zm-.07,24.15h-5.31V201.4h5.31Z" transform="translate(0)" fill="#ff7f85"/><path d="M180.66,202.16a5,5,0,0,1,1.28,3.69v13.37h-5.31V207.51a2.68,2.68,0,0,0-.38-1.65,1.72,1.72,0,0,0-1.36-.45,6.85,6.85,0,0,0-2.17.38A21.21,21.21,0,0,0,169.9,207l0,12.18h-5.35V201.4h4.34l.39,2.64a12.07,12.07,0,0,1,7.63-3.15A5.09,5.09,0,0,1,180.66,202.16Z" transform="translate(0)" fill="#ff7f85"/><path d="M204.25,203.75,202,204a7,7,0,0,1,.4,2.57,6.06,6.06,0,0,1-.8,3.32,4.65,4.65,0,0,1-2.62,1.81,17.23,17.23,0,0,1-5,.58,26.39,26.39,0,0,1-3.11-.18,1.54,1.54,0,0,0-.22.79,1.33,1.33,0,0,0,.33.89,1.46,1.46,0,0,0,1,.45l6.47.76a6.44,6.44,0,0,1,4,1.59,5.2,5.2,0,0,1,1.21,3.72,6,6,0,0,1-.91,3.56,4.83,4.83,0,0,1-2.89,1.74,32.23,32.23,0,0,1-11.31,0,4.79,4.79,0,0,1-2.84-1.63,5.33,5.33,0,0,1-.82-3.18,3.69,3.69,0,0,1,.66-2.26,5.68,5.68,0,0,1,2.16-1.61,3.28,3.28,0,0,1-1-2.45,3.93,3.93,0,0,1,.42-1.76,2.91,2.91,0,0,1,1.17-1.28,4.22,4.22,0,0,1-2-1.83,7.36,7.36,0,0,1,.16-6.34,4.65,4.65,0,0,1,2.62-1.81,22.05,22.05,0,0,1,9.74-.07h5.68Zm-5.93,15.49a1.43,1.43,0,0,0-.82-.43,17.57,17.57,0,0,0-1.86-.28l-4.48-.5a4.48,4.48,0,0,0-.89,1,2.12,2.12,0,0,0-.27,1.11,2,2,0,0,0,.35,1.31,1.91,1.91,0,0,0,1.21.57,18.82,18.82,0,0,0,2.67.14A19.72,19.72,0,0,0,197,222a2.06,2.06,0,0,0,1.25-.57,1.84,1.84,0,0,0,.36-1.24A1.53,1.53,0,0,0,198.32,219.24Zm-1.58-10.83a2.57,2.57,0,0,0,0-3.61,5.32,5.32,0,0,0-2.71-.47,5.46,5.46,0,0,0-2.73.47,2,2,0,0,0-.74,1.81,2,2,0,0,0,.74,1.8,5.16,5.16,0,0,0,2.73.51A5,5,0,0,0,196.74,208.41Z" transform="translate(0)" fill="#ff7f85"/><text transform="translate(73.52 184.87)" font-size="39" fill="#efc79c" font-family="Gadugi-Bold, Gadugi" font-weight="700">DESN</text><text transform="translate(55.98 330.47)" font-size="15" fill="#5d0070" font-family="ArialNarrow-Bold, Arial" font-weight="700">Get it now<tspan x="59.46" y="0" font-family="MyriadPro-Regular, Myriad Pro" font-weight="400" fill="#000"> </tspan></text><text transform="translate(35.03 239.82)" font-size="15" fill="#ff7f85" font-family="MyriadPro-Regular, Myriad Pro"><tspan letter-spacing="-0.01em">L</tspan><tspan x="6.87" y="0">et all </tspan><tspan x="40.02" y="0" letter-spacing="-0.01em">y</tspan><tspan x="46.93" y="0">our shopping </tspan><tspan x="134.49" y="0" letter-spacing="-0.01em">w</tspan><tspan x="145.38" y="0">o</tspan><tspan x="153.61" y="0" letter-spacing="0em">rr</tspan><tspan x="163.54" y="0">ies be </tspan><tspan x="0" y="18">his</tspan><tspan x="17.77" y="18" letter-spacing="-0.01em">t</tspan><tspan x="22.65" y="18">o</tspan><tspan x="30.88" y="18" letter-spacing="0.03em">r</tspan><tspan x="36.16" y="18">y because DES</tspan><tspan x="126.07" y="18" letter-spacing="-0.01em">N</tspan><tspan x="135.87" y="18" letter-spacing="-0.07em"></tspan><tspan x="137.89" y="18">s got </tspan><tspan x="171.78" y="18" letter-spacing="-0.01em">y</tspan><tspan x="178.69" y="18">ou </tspan><tspan x="0" y="36" letter-spacing="-0.01em">c</tspan><tspan x="6.63" y="36" letter-spacing="-0.01em">o</tspan><tspan x="14.76" y="36" letter-spacing="-0.01em">v</tspan><tspan x="21.82" y="36">e</tspan><tspan x="29.34" y="36" letter-spacing="-0.01em">r</tspan><tspan x="34.09" y="36">e</tspan><tspan x="41.61" y="36" letter-spacing="-0.01em">d</tspan><tspan x="49.92" y="36">.</tspan></text><polygon points="448.2 107.9 448.2 125.53 425.45 138.89 409.98 129.96 448.2 107.9" fill="#d2448d"/><path d="M466.25,176h50a47.5,47.5,0,0,1-3.49,3.35l3.49,3.36h-50l3.3-3.31Z" transform="translate(0)" fill="#8140ff"/><path d="M518.33,183.42l-4.19-4c1.2-1.06,3.07-3,4.19-4Z" transform="translate(0)" fill="#8140ff"/><path d="M662.72,267.21c3.77,5.08,2.8,10.85-2.56,14s-14.15,2.67-20.65-1.81a14,14,0,0,1-5.91-7.79,8.29,8.29,0,0,1,1.2-6.9c1.48-2.14,4.29-4.09,8.47-4.77C650.61,258.72,658.8,261.91,662.72,267.21Zm-6,5.5a2.48,2.48,0,0,0,1.05-2.22,3.74,3.74,0,0,0-1.19-2.13l.69-.4-.82-.73-.69.4a7.23,7.23,0,0,0-2.87-1.4,5,5,0,0,0-3.54.51,2.21,2.21,0,0,0-1.22,2.73,6.34,6.34,0,0,0,1.06,1.95q-2.28,1.33-4.58,2.65a1.89,1.89,0,0,1-.55-1.74,2.91,2.91,0,0,1,1.13-1.49l-1.67-1.08a3.22,3.22,0,0,0-1.34,1.58,2.34,2.34,0,0,0,0,1.65,6.22,6.22,0,0,0,1.21,1.78l-1.44.84.82.72,1.46-.84a6.53,6.53,0,0,0,3.45,1.49,5.38,5.38,0,0,0,3.42-.62,2.53,2.53,0,0,0,1.42-2.07,2.83,2.83,0,0,0-.34-1.35,11.86,11.86,0,0,0-1-1.48l4.16-2.4a1.57,1.57,0,0,1-.32,2.5Z" transform="translate(0)" fill="#f7b23b"/><path d="M657.73,270.49a2.48,2.48,0,0,1-1.05,2.22L655,271.56a1.57,1.57,0,0,0,.32-2.5l-4.16,2.4a11.86,11.86,0,0,1,1,1.48,2.83,2.83,0,0,1,.34,1.35,2.53,2.53,0,0,1-1.42,2.07,5.38,5.38,0,0,1-3.42.62,6.53,6.53,0,0,1-3.45-1.49l-1.46.84-.82-.72,1.44-.84a6.22,6.22,0,0,1-1.21-1.78,2.34,2.34,0,0,1,0-1.65,3.22,3.22,0,0,1,1.34-1.58l1.67,1.08a2.91,2.91,0,0,0-1.13,1.49,1.89,1.89,0,0,0,.55,1.74q2.29-1.32,4.58-2.65a6.34,6.34,0,0,1-1.06-1.95,2.21,2.21,0,0,1,1.22-2.73,5,5,0,0,1,3.54-.51,7.23,7.23,0,0,1,2.87,1.4l.69-.4.82.73-.69.4A3.74,3.74,0,0,1,657.73,270.49Zm-7.19.14,4-2.31c-2.16-1.48-4.35-.55-4.54.65A2.6,2.6,0,0,0,650.54,270.63Zm-.12,3.45a3.07,3.07,0,0,0-.65-1.81l-4.38,2.53a4.21,4.21,0,0,0,2.07.77,3.43,3.43,0,0,0,2.07-.42A1.61,1.61,0,0,0,650.42,274.08Z" transform="translate(0)" fill="#fbc959"/><path d="M654.52,268.32l-4,2.31A2.6,2.6,0,0,1,650,269C650.17,267.77,652.36,266.84,654.52,268.32Z" transform="translate(0)" fill="#f7b23b"/><path d="M649.77,272.27a3.07,3.07,0,0,1,.65,1.81,1.61,1.61,0,0,1-.89,1.07,3.43,3.43,0,0,1-2.07.42,4.21,4.21,0,0,1-2.07-.77Z" transform="translate(0)" fill="#f7b23b"/><path d="M614.71,267.55c-.2-5.25,6-10,15-11.21a32.66,32.66,0,0,1,13.48.93,21.86,21.86,0,0,0-4.75,1.07,27.64,27.64,0,0,0-9.92.29,17.15,17.15,0,0,0-8.13,4c-3.23,3.16-2.93,7.09.66,10.06a18.53,18.53,0,0,0,8.34,3.54,10.9,10.9,0,0,0,.47,1.24,10.18,10.18,0,0,0,.46,1,24.54,24.54,0,0,1-11.61-4.21,11,11,0,0,1-3-3.32A7.2,7.2,0,0,1,614.71,267.55Z" transform="translate(0)" fill="#fbc959"/><path d="M631.71,263.23c1.82-2.63,5.27-5,10.3-5.8,8.77-1.43,18.8,2.35,23.63,8.87,4.59,6.19,3.37,13.21-3.12,17s-17.17,3.25-25.08-2.21c-4.18-2.88-6.42-6.4-7.18-9.45A10.07,10.07,0,0,1,631.71,263.23Zm28.45,17.95c5.36-3.12,6.33-8.89,2.56-14-3.92-5.3-12.11-8.49-19.45-7.3-4.18.68-7,2.63-8.47,4.77a8.29,8.29,0,0,0-1.2,6.9,14,14,0,0,0,5.91,7.79C646,283.85,654.78,284.3,660.16,281.18Z" transform="translate(0)" fill="#fbc959"/><path d="M629.94,267.52c-.19.72-.38,1.44-.58,2.16a1.16,1.16,0,0,1-.27-1A2.34,2.34,0,0,1,629.94,267.52Z" transform="translate(0)" fill="#f7b23b"/><path d="M629.41,276.19a18.53,18.53,0,0,1-8.34-3.54c-3.59-3-3.89-6.9-.66-10.06a17.15,17.15,0,0,1,8.13-4,27.64,27.64,0,0,1,9.92-.29c-3.87,1.39-7.21,4.13-8.23,8.13l-.21.77-1.54-.61a3.28,3.28,0,0,0-1.32,1.43,1.52,1.52,0,0,0,0,1.32,4.64,4.64,0,0,0,1.28,1.29l-1.44.83.84.49,1.1-.63s0,.2,0,.25a10.7,10.7,0,0,0,.25,3.84C629.27,275.74,629.38,276.1,629.41,276.19Z" transform="translate(0)" fill="#f7b23b"/><path d="M630,267.24c0,.09,0,.18-.08.28a2.34,2.34,0,0,0-.85,1.12,1.16,1.16,0,0,0,.27,1,13.47,13.47,0,0,0-.38,1.68l-1.1.63-.84-.49,1.44-.83a4.64,4.64,0,0,1-1.28-1.29,1.52,1.52,0,0,1,0-1.32,3.28,3.28,0,0,1,1.32-1.43Z" transform="translate(0)" fill="#fbc959"/><path d="M630,267.24h0a10.68,10.68,0,0,0,.2,4.37c.76,3.05,3,6.57,7.18,9.45,7.91,5.46,18.58,6,25.08,2.21a11.39,11.39,0,0,0,5.5-6.65c-.34,1.23-.66,2.47-1,3.7a10.22,10.22,0,0,1-1.28,2.88c-.19.31-.65.91-.69,1a15,15,0,0,1-8,4.76c-8.3,2.13-18.37-.92-23.91-6.69a17.32,17.32,0,0,1-2.94-4.05,12.39,12.39,0,0,1-1.32-4.57,9.52,9.52,0,0,1,0-2A35.83,35.83,0,0,1,630,267.24Z" transform="translate(0)" fill="#f7b23b"/><path d="M585,245.22v-4.28s0,.49,0,.78a7.94,7.94,0,0,0,1.78,3.92,9.88,9.88,0,0,0,.87,1,17.93,17.93,0,0,0,7,4l.64.21c6.92,2.15,16,1.78,22.36-1.55,3.35-1.74,6.47-4.65,6.47-8.39v4.64c0,3.07-2.12,5.59-4.65,7.31a25.7,25.7,0,0,1-12.42,3.89h0a32.68,32.68,0,0,1-11.44-1.16,19.15,19.15,0,0,1-8-4.37A8,8,0,0,1,585,245.22Z" transform="translate(0)" fill="#f7b23b"/><path d="M621.61,251.05c-.84,2.54-3,4.51-5.38,5.85-8.41,4.87-22.42,4.3-29.54-1.24a30.24,30.24,0,0,0,11.48,2.23c5.07.79,11,.19,15.65-2.42a21.36,21.36,0,0,0,5.65-2.64,14.33,14.33,0,0,0,2.14-1.78Z" transform="translate(0)" fill="#fbc959"/><path d="M614.72,272.32c0-.22,0,.08,0-4.77a7.2,7.2,0,0,0,1,3.31,11,11,0,0,0,3,3.32,24.54,24.54,0,0,0,11.61,4.21,16.84,16.84,0,0,0,2.83,3.85c.37.39.73.72,1.07,1-5.69,0-12.69-1.57-16.76-5.51A8.33,8.33,0,0,1,614.72,272.32Z" transform="translate(0)" fill="#f7b23b"/><path d="M598.17,257.89a31.9,31.9,0,0,0,8.87-1.17,30.21,30.21,0,0,0,6.78-1.25C609.23,258.07,603.28,258.69,598.17,257.89Z" transform="translate(0)" fill="#f7b23b"/><path d="M578.81,246.32V242a7.38,7.38,0,0,0,1.5,4.34c1.77,2.47,4.78,4.18,7.66,5.23h0a19.36,19.36,0,0,0,7.64,4A32.5,32.5,0,0,0,607,256.72c-7.8,2.24-16.92,1.12-22.45-2.11a11.67,11.67,0,0,1-5.32-5.59A6.83,6.83,0,0,1,578.81,246.32Z" transform="translate(0)" fill="#f7b23b"/><path d="M585,240.87v-4.09l0,0a7.68,7.68,0,0,0,1.76,4.17c5.67,7.16,22,8.83,31.62,3.28a13.6,13.6,0,0,0,3.94-3.26,7.54,7.54,0,0,0,1.79-4.72v4.64c0,3.75-3.14,6.67-6.47,8.4a28.55,28.55,0,0,1-12.11,2.88,31.81,31.81,0,0,1-10.89-1.54c-3-1-6.43-2.89-8.22-5.48A7.4,7.4,0,0,1,585,240.87Z" transform="translate(0)" fill="#f7b23b"/><path d="M622.34,231.52a7.12,7.12,0,0,1,0,9.43,13.6,13.6,0,0,1-3.94,3.26c-9.65,5.55-25.95,3.88-31.62-3.28a7,7,0,0,1-1.15-7.55,11.87,11.87,0,0,1,5.11-5.15c6.57-3.77,16.46-4.28,23.94-1.68A17,17,0,0,1,622.34,231.52Zm-3.15,8.6a5.88,5.88,0,0,0,0-7.77c-4.66-5.87-18.06-7.28-26-2.71a11.31,11.31,0,0,0-3.26,2.69,5.88,5.88,0,0,0,0,7.77c4.67,5.88,18.07,7.28,26,2.71A11.44,11.44,0,0,0,619.19,240.12Z" transform="translate(0)" fill="#fbc959"/><path d="M619.2,232.35a5.88,5.88,0,0,1,0,7.77,11.44,11.44,0,0,1-3.26,2.69c-7.95,4.57-21.35,3.17-26-2.71a5.88,5.88,0,0,1,0-7.77,11.31,11.31,0,0,1,3.26-2.69C601.14,225.07,614.54,226.48,619.2,232.35Zm-10.88,1.43,2.12-.08a2.4,2.4,0,0,0-1.35-1.83,7.11,7.11,0,0,0-2.72-.74c0-.18,0-.37.08-.56l-1.2,0c0,.18,0,.37-.08.56a8.45,8.45,0,0,0-3.13.49,2.63,2.63,0,0,0-1.83,2c-.15,1.08.69,1.82,1.71,2.22a12.42,12.42,0,0,0,2.48.68c-.18,1.25-.35,2.49-.53,3.73a3.32,3.32,0,0,1-2-.79,2.13,2.13,0,0,1-.64-1.43l-2.07.13a2.23,2.23,0,0,0,.58,1.58,3.72,3.72,0,0,0,1.52,1,11.2,11.2,0,0,0,2.42.51c-.06.39-.12.78-.17,1.18l1.19.05c.06-.39.12-.79.17-1.18a7.45,7.45,0,0,0,3.6-.71,2.7,2.7,0,0,0,1.64-2,2,2,0,0,0-1-1.91,5.13,5.13,0,0,0-1.46-.65q-.48-.15-2-.45l.48-3.38a3.49,3.49,0,0,1,1.5.56A1.6,1.6,0,0,1,608.32,233.78Z" transform="translate(0)" fill="#f7b23b"/><path d="M610.44,233.7l-2.12.08a1.6,1.6,0,0,0-.6-1.1,3.49,3.49,0,0,0-1.5-.56l-.48,3.38q1.5.3,2,.45a5.13,5.13,0,0,1,1.46.65,2,2,0,0,1,1,1.91,2.7,2.7,0,0,1-1.64,2,7.45,7.45,0,0,1-3.6.71c0,.39-.11.79-.17,1.18l-1.19-.05c.05-.4.11-.79.17-1.18a11.2,11.2,0,0,1-2.42-.51,3.72,3.72,0,0,1-1.52-1,2.23,2.23,0,0,1-.58-1.58l2.07-.13a2.13,2.13,0,0,0,.64,1.43,3.32,3.32,0,0,0,2,.79c.18-1.24.35-2.48.53-3.73a12.42,12.42,0,0,1-2.48-.68c-1-.4-1.86-1.14-1.71-2.22a2.63,2.63,0,0,1,1.83-2,8.45,8.45,0,0,1,3.13-.49c0-.19.05-.38.08-.56l1.2,0c0,.19-.06.38-.08.56a7.11,7.11,0,0,1,2.72.74A2.4,2.4,0,0,1,610.44,233.7Zm-2.38,4.79a1.09,1.09,0,0,0-.4-1.05,5.84,5.84,0,0,0-2.08-.8c-.17,1.19-.35,2.38-.52,3.57a4.34,4.34,0,0,0,2.05-.5A1.67,1.67,0,0,0,608.06,238.49Zm-3.49-3.19c.15-1.08.31-2.17.46-3.25a4.5,4.5,0,0,0-1.94.46,1.43,1.43,0,0,0-.84,1C602.1,234.62,603.48,235.05,604.57,235.3Z" transform="translate(0)" fill="#fbc959"/><path d="M607.66,237.44a1.09,1.09,0,0,1,.4,1.05,1.67,1.67,0,0,1-.95,1.22,4.34,4.34,0,0,1-2.05.5c.17-1.19.35-2.38.52-3.57A5.84,5.84,0,0,1,607.66,237.44Z" transform="translate(0)" fill="#f7b23b"/><path d="M605,232.05c-.15,1.08-.31,2.17-.46,3.25-1.09-.25-2.47-.68-2.32-1.77a1.43,1.43,0,0,1,.84-1A4.5,4.5,0,0,1,605,232.05Z" transform="translate(0)" fill="#f7b23b"/><path d="M588,251.52c-2.88-1.05-5.89-2.76-7.66-5.23-2.23-3.1-2-6.69.93-9.8a15.67,15.67,0,0,1,4.38-3.11,7,7,0,0,0-.63,2.85v.55c-3.73,3.22-3.6,7.42.25,10.55a8.78,8.78,0,0,0,2.06,3.51C587.54,251.11,588,251.5,588,251.52Z" transform="translate(0)" fill="#fbc959"/><path d="M585,246.2a7.49,7.49,0,0,0,.22,1.13c-3.85-3.13-4-7.33-.25-10.55C585,246,585,245.83,585,246.2Z" transform="translate(0)" fill="#f7b23b"/><path d="M582.92,253.52a17.92,17.92,0,0,0,3.36,1.95,3.51,3.51,0,0,1,.41.19c7.12,5.54,21.13,6.11,29.54,1.24,2.34-1.34,4.54-3.31,5.38-5.85h0l.36-.38v2.88c0-.07,0-.15,0-.23a6.75,6.75,0,0,1-.72,3.29,8.81,8.81,0,0,1-1.32,2,11.8,11.8,0,0,1-.9.94c-8.15,7.62-27.38,6.85-34.11-.89a7.69,7.69,0,0,1-2.08-5.14v0Z" transform="translate(0)" fill="#f7b23b"/><path d="M290.66,344.48v-4.09l0,0a7.73,7.73,0,0,0,1.75,4.18c5.68,7.15,22,8.83,31.63,3.28a13.76,13.76,0,0,0,3.94-3.26,7.65,7.65,0,0,0,1.79-4.73v4.64c0,3.75-3.14,6.67-6.47,8.4a28.41,28.41,0,0,1-12.12,2.88,32,32,0,0,1-10.88-1.53c-3-1-6.44-2.9-8.22-5.48A7.35,7.35,0,0,1,290.66,344.48Z" transform="translate(0)" fill="#f7b23b"/><path d="M328,335.13a7.14,7.14,0,0,1,0,9.44,13.76,13.76,0,0,1-3.94,3.26c-9.65,5.55-25.95,3.87-31.63-3.28a7.06,7.06,0,0,1-1.15-7.55,11.87,11.87,0,0,1,5.12-5.16c6.57-3.77,16.46-4.28,23.94-1.67A17,17,0,0,1,328,335.13Zm-3.16,8.6a5.86,5.86,0,0,0,0-7.77c-4.66-5.87-18.05-7.28-26-2.7A11.08,11.08,0,0,0,295.6,336a5.84,5.84,0,0,0,0,7.76c4.66,5.88,18.06,7.28,26,2.71A11.08,11.08,0,0,0,324.86,343.73Z" transform="translate(0)" fill="#fbc959"/><path d="M324.87,336a5.86,5.86,0,0,1,0,7.77,11.08,11.08,0,0,1-3.25,2.69c-8,4.57-21.36,3.17-26-2.71a5.84,5.84,0,0,1,0-7.76,11.08,11.08,0,0,1,3.25-2.69C306.82,328.68,320.21,330.09,324.87,336ZM314,337.39l2.13-.08a2.4,2.4,0,0,0-1.35-1.83,7,7,0,0,0-2.73-.73c0-.19.06-.38.08-.56l-1.19-.06c0,.19-.05.37-.08.56a8.51,8.51,0,0,0-3.14.49,2.64,2.64,0,0,0-1.82,1.95c-.16,1.09.69,1.82,1.71,2.22a11.66,11.66,0,0,0,2.48.69l-.54,3.73a3.45,3.45,0,0,1-2-.8,2.1,2.1,0,0,1-.63-1.42l-2.08.12a2.22,2.22,0,0,0,.59,1.58,3.75,3.75,0,0,0,1.51,1,11.91,11.91,0,0,0,2.42.52c0,.39-.11.78-.17,1.17l1.2.06c.06-.4.11-.79.17-1.19a7.45,7.45,0,0,0,3.6-.71,2.65,2.65,0,0,0,1.63-2,1.94,1.94,0,0,0-1-1.91,5.41,5.41,0,0,0-1.46-.66c-.32-.1-1-.25-2-.44l.48-3.38a3.27,3.27,0,0,1,1.49.56A1.5,1.5,0,0,1,314,337.39Z" transform="translate(0)" fill="#f7b23b"/><path d="M316.12,337.31l-2.13.08a1.5,1.5,0,0,0-.6-1.09,3.27,3.27,0,0,0-1.49-.56l-.48,3.38c1,.19,1.66.34,2,.44a5.41,5.41,0,0,1,1.46.66,1.94,1.94,0,0,1,1,1.91,2.65,2.65,0,0,1-1.63,2,7.45,7.45,0,0,1-3.6.71c-.06.4-.11.79-.17,1.19l-1.2-.06c.06-.39.12-.78.17-1.17a11.91,11.91,0,0,1-2.42-.52,3.75,3.75,0,0,1-1.51-1,2.22,2.22,0,0,1-.59-1.58l2.08-.12a2.1,2.1,0,0,0,.63,1.42,3.45,3.45,0,0,0,2,.8l.54-3.73a11.66,11.66,0,0,1-2.48-.69c-1-.4-1.87-1.13-1.71-2.22a2.64,2.64,0,0,1,1.82-1.95,8.51,8.51,0,0,1,3.14-.49c0-.19,0-.37.08-.56l1.19.06c0,.18-.05.37-.08.56a7,7,0,0,1,2.73.73A2.4,2.4,0,0,1,316.12,337.31Zm-2.38,4.8a1.12,1.12,0,0,0-.4-1.06,5.76,5.76,0,0,0-2.09-.79l-.51,3.56a4.27,4.27,0,0,0,2-.49A1.72,1.72,0,0,0,313.74,342.11Zm-3.5-3.2c.16-1.08.31-2.16.47-3.24a4.45,4.45,0,0,0-1.95.45,1.47,1.47,0,0,0-.83,1C307.77,338.24,309.16,338.66,310.24,338.91Z" transform="translate(0)" fill="#fbc959"/><path d="M313.34,341.05a1.12,1.12,0,0,1,.4,1.06,1.72,1.72,0,0,1-1,1.22,4.27,4.27,0,0,1-2,.49l.51-3.56A5.76,5.76,0,0,1,313.34,341.05Z" transform="translate(0)" fill="#f7b23b"/><path d="M310.71,335.67c-.16,1.08-.31,2.16-.47,3.24-1.08-.25-2.47-.67-2.31-1.77a1.47,1.47,0,0,1,.83-1A4.45,4.45,0,0,1,310.71,335.67Z" transform="translate(0)" fill="#f7b23b"/><path d="M486.93,427.29c3.77,5.08,2.8,10.85-2.56,14s-14.15,2.67-20.65-1.81a14,14,0,0,1-5.91-7.78,8.34,8.34,0,0,1,1.2-6.91c1.48-2.14,4.29-4.09,8.47-4.77C474.82,418.8,483,422,486.93,427.29Zm-6,5.5a2.48,2.48,0,0,0,1.05-2.22,3.74,3.74,0,0,0-1.19-2.13l.69-.4-.82-.72-.69.39a7.06,7.06,0,0,0-2.87-1.39,5,5,0,0,0-3.54.5,2.21,2.21,0,0,0-1.22,2.73,6.32,6.32,0,0,0,1.07,2l-4.59,2.64a1.89,1.89,0,0,1-.55-1.74,2.91,2.91,0,0,1,1.13-1.49l-1.67-1.08a3.28,3.28,0,0,0-1.34,1.58,2.34,2.34,0,0,0,0,1.65,6.46,6.46,0,0,0,1.21,1.79l-1.44.83.82.72,1.46-.84a6.62,6.62,0,0,0,3.45,1.5,5.38,5.38,0,0,0,3.42-.63,2.53,2.53,0,0,0,1.42-2.07,2.83,2.83,0,0,0-.34-1.35,13.57,13.57,0,0,0-1-1.48l4.15-2.4a1.58,1.58,0,0,1-.31,2.5Z" transform="translate(0)" fill="#f7b23b"/><path d="M481.94,430.57a2.48,2.48,0,0,1-1.05,2.22l-1.66-1.15a1.58,1.58,0,0,0,.31-2.5l-4.15,2.4a13.57,13.57,0,0,1,1,1.48,2.83,2.83,0,0,1,.34,1.35,2.53,2.53,0,0,1-1.42,2.07,5.38,5.38,0,0,1-3.42.63,6.62,6.62,0,0,1-3.45-1.5l-1.46.84-.82-.72,1.44-.83a6.46,6.46,0,0,1-1.21-1.79,2.34,2.34,0,0,1,0-1.65,3.28,3.28,0,0,1,1.34-1.58l1.67,1.08a2.91,2.91,0,0,0-1.13,1.49,1.89,1.89,0,0,0,.55,1.74l4.59-2.64a6.32,6.32,0,0,1-1.07-2,2.21,2.21,0,0,1,1.22-2.73,5,5,0,0,1,3.54-.5,7.06,7.06,0,0,1,2.87,1.39l.69-.39.82.72-.69.4A3.74,3.74,0,0,1,481.94,430.57Zm-7.19.14,4-2.3c-2.16-1.49-4.35-.56-4.54.64A2.6,2.6,0,0,0,474.75,430.71Zm-.12,3.46a3.1,3.1,0,0,0-.65-1.82l-4.38,2.53a4.11,4.11,0,0,0,2.07.77,3.43,3.43,0,0,0,2.07-.42A1.59,1.59,0,0,0,474.63,434.17Z" transform="translate(0)" fill="#fbc959"/><path d="M478.73,428.41l-4,2.3a2.6,2.6,0,0,1-.56-1.66C474.38,427.85,476.57,426.92,478.73,428.41Z" transform="translate(0)" fill="#f7b23b"/><path d="M474,432.35a3.1,3.1,0,0,1,.65,1.82,1.59,1.59,0,0,1-.89,1.06,3.43,3.43,0,0,1-2.07.42,4.11,4.11,0,0,1-2.07-.77Z" transform="translate(0)" fill="#f7b23b"/><path d="M438.92,427.63c-.2-5.25,6-10,15-11.21a32.66,32.66,0,0,1,13.48.93,21.86,21.86,0,0,0-4.75,1.07,27.43,27.43,0,0,0-9.92.3,17,17,0,0,0-8.13,3.95c-3.23,3.16-2.93,7.09.66,10.06a18.53,18.53,0,0,0,8.34,3.54,10.9,10.9,0,0,0,.47,1.24,10.18,10.18,0,0,0,.46,1,24.36,24.36,0,0,1-11.6-4.21,11,11,0,0,1-3-3.32A7.2,7.2,0,0,1,438.92,427.63Z" transform="translate(0)" fill="#fbc959"/><path d="M455.92,423.31c1.82-2.63,5.27-5,10.3-5.79,8.77-1.44,18.8,2.35,23.63,8.86,4.59,6.2,3.37,13.21-3.12,17s-17.17,3.25-25.08-2.21c-4.18-2.88-6.42-6.4-7.18-9.45A10.08,10.08,0,0,1,455.92,423.31Zm28.45,17.95c5.36-3.12,6.33-8.89,2.56-14-3.92-5.3-12.11-8.49-19.45-7.3-4.18.68-7,2.63-8.47,4.77a8.34,8.34,0,0,0-1.2,6.91,14,14,0,0,0,5.91,7.78C470.22,443.93,479,444.38,484.37,441.26Z" transform="translate(0)" fill="#fbc959"/><path d="M454.15,427.6l-.57,2.16a1.14,1.14,0,0,1-.28-1A2.34,2.34,0,0,1,454.15,427.6Z" transform="translate(0)" fill="#f7b23b"/><path d="M453.62,436.27a18.53,18.53,0,0,1-8.34-3.54c-3.59-3-3.89-6.9-.66-10.06a17,17,0,0,1,8.13-3.95,27.43,27.43,0,0,1,9.92-.3c-3.87,1.4-7.21,4.13-8.23,8.13l-.21.77-1.53-.61a3.25,3.25,0,0,0-1.33,1.43,1.52,1.52,0,0,0,0,1.32,4.51,4.51,0,0,0,1.28,1.29l-1.44.83.84.49,1.1-.63s0,.2,0,.25a10.7,10.7,0,0,0,.25,3.84C453.48,435.82,453.59,436.18,453.62,436.27Z" transform="translate(0)" fill="#f7b23b"/><path d="M454.23,427.32c0,.09-.05.19-.08.28a2.34,2.34,0,0,0-.85,1.12,1.14,1.14,0,0,0,.28,1,13.64,13.64,0,0,0-.39,1.68l-1.1.63-.84-.49,1.44-.83a4.51,4.51,0,0,1-1.28-1.29,1.52,1.52,0,0,1,0-1.32,3.25,3.25,0,0,1,1.33-1.43Z" transform="translate(0)" fill="#fbc959"/><path d="M454.23,427.32h0a10.68,10.68,0,0,0,.2,4.37c.76,3.05,3,6.57,7.18,9.45,7.91,5.46,18.58,6,25.08,2.21a11.39,11.39,0,0,0,5.5-6.65l-1,3.7a10.22,10.22,0,0,1-1.28,2.88c-.19.32-.65.91-.69,1a15,15,0,0,1-8,4.76c-8.31,2.13-18.38-.92-23.92-6.69a17.11,17.11,0,0,1-2.94-4.05,12.34,12.34,0,0,1-1.32-4.57,10.26,10.26,0,0,1,0-2A35.83,35.83,0,0,1,454.23,427.32Z" transform="translate(0)" fill="#f7b23b"/><path d="M438.93,432.4c0-.22,0,.09,0-4.77a7.2,7.2,0,0,0,1,3.31,11,11,0,0,0,3,3.32,24.36,24.36,0,0,0,11.6,4.21,16.84,16.84,0,0,0,2.83,3.85c.37.39.73.72,1.07,1-5.69,0-12.69-1.56-16.75-5.51A8.3,8.3,0,0,1,438.93,432.4Z" transform="translate(0)" fill="#f7b23b"/></g></g></svg>